<?xml version="1.0" encoding="utf-8"?>
<svg version="1.1" id="Layer_1"
xmlns="http://www.w3.org/2000/svg"
xmlns:xlink="http://www.w3.org/1999/xlink"
width="550px" height="400px"
xml:space="preserve">
<g id="PathID_1" transform="matrix(0.352941, 0, 0, 0.352941, -72.7, 17)">
<path style="fill:#FADC14;fill-opacity:1" d="M15.6 0L15.6 -2L15.55 -5.2L15.55 -7.3L15.55 -10.8L25 -10.7L24.9 -17.85L18.65 -17.55L15.55 -17.45L15.55 -23.75L25.75 -23.95L25.55 -31.35L20.65 -31.2L14.65 -31L8.85 -30.8L4.65 -30.75L4.65 -28.35L4.7 -24.3L4.75 -20.35L4.8 -18.35L4.8 -12.55L4.75 -10.5L4.75 -6.75L4.7 -2.75L4.65 0L15.6 0" />
</g>
<g id="PathID_2" transform="matrix(0.352941, 0, 0, 0.352941, -62.8, 17)">
<path style="fill:#FADC14;fill-opacity:1" d="M15.65 -17.75L15.7 -23.25L15.8 -28.2L15.9 -30.75L4.6 -30.75L4.6 -28.4L4.6 -24.15L4.65 -20L4.7 -17.8L4.7 -13.15L4.65 -10.85L4.65 -6.85L4.6 -2.65L4.6 0L15.9 0L15.8 -2.85L15.7 -7.95L15.65 -13.1L15.65 -17.75" />
</g>
<g id="PathID_3" transform="matrix(0.352941, 0, 0, 0.352941, -55.6, 17)">
<path style="fill:#FADC14;fill-opacity:1" d="M13.1 0.3L13.1 -2.2L13.05 -6.65L13.05 -11.3L13.05 -14.35L16.55 -11.7L22.85 -7.2L29.6 -2.45Q32.85 -0.25 34.75 0.85L35.5 0.65L35.8 -5.65L36.35 -14.55L36.9 -23.75L37.45 -30.75L27.5 -30.95L27.45 -28.15L27.45 -23.7L27.5 -19.15L27.55 -16.1Q27.1 -16.55 24.65 -18.3L18.75 -22.45Q15.3 -24.9 11.8 -27.25Q8.3 -29.65 5.8 -31.25L4.95 -31L4.6 -25.85L4.15 -18.5L3.7 -10.55L3.3 -3.8L3.1 0L13.1 0.3" />
</g>
<g id="PathID_4" transform="matrix(0.352941, 0, 0, 0.352941, -41.25, 17)">
<path style="fill:#FADC14;fill-opacity:1" d="M4.8 -13.7L4.75 -11.3L4.7 -7.05L4.6 -2.6Q4.6 -0.6 4.5 0.2Q10.3 0.4 16 -0.6Q21.7 -1.65 26.4 -3.95Q31.1 -6.25 33.95 -10Q36.8 -13.75 36.85 -19Q36.95 -20.8 35.85 -23.05Q34.75 -25.35 31.6 -27.3Q28.5 -29.25 22.45 -30.05Q19.35 -30.45 15.15 -30.6Q11 -30.8 4.55 -30.75Q4.65 -30.25 4.65 -28.55L4.7 -24.8L4.75 -21.1L4.8 -19.05L4.8 -13.7M15.55 -23.65Q18.05 -23.65 20.25 -23.2Q22.5 -22.8 23.9 -21.45Q25.3 -20.1 25.35 -17.45Q25.25 -14.45 23.7 -12.4Q22.2 -10.35 19.95 -9.2Q17.75 -8.1 15.55 -7.85L15.55 -23.65" />
</g>
<g id="PathID_5" transform="matrix(0.352941, 0, 0, 0.352941, -23.05, 17)">
<path style="fill:#FADC14;fill-opacity:1" d="M20.95 0L20.85 -2.3L20.8 -6.55L20.8 -11.3L20.8 -22.95L22.4 -22.9L25.6 -22.8L28.85 -22.75L30.7 -22.65L30.7 -30.65L27.8 -30.5L23.55 -30.4L19.55 -30.3L17.45 -30.3L13.45 -30.3L11.4 -30.3L7.2 -30.4L2.75 -30.5L-0.15 -30.65L-0.15 -22.65L2.6 -22.75L6.65 -22.85L9.8 -22.95L9.8 -11.95L9.75 -7L9.7 -2.55L9.7 0L20.95 0" />
</g>
<g id="PathID_6" transform="matrix(0.352941, 0, 0, 0.352941, -12.25, 17)">
<path style="fill:#FADC14;fill-opacity:1" d="M16.1 0L16 -2.65L15.9 -6.9L15.85 -10.25L15.85 -11.5L27.1 -12.35L27.1 -9.3L27.05 -6.85L26.95 -2.9L26.85 0L38.3 0L38.2 -2.15L38.1 -6.2L38.05 -10.2L38.05 -12.25L38.05 -16.55L38.05 -19.05L38.15 -23.65L38.2 -28.25L38.3 -30.75L26.85 -30.75Q26.95 -30.15 26.95 -28.15L27.05 -24.2L27.1 -21.75L27.1 -20.15L15.85 -19.3L15.85 -20.85L15.85 -22.6L15.95 -25.75L16.05 -28.95L16.15 -30.75L4.65 -30.75L4.75 -28.4L4.8 -24.15L4.85 -20L4.9 -17.85L4.9 -13.15L4.85 -10.85L4.85 -6.85L4.8 -2.65L4.8 0L16.1 0" />
</g>
<g id="PathID_7" transform="matrix(0.352941, 0, 0, 0.352941, 2.9, 17)">
<path style="fill:#FADC14;fill-opacity:1" d="M25.85 -7.3L22.4 -7.2L18.15 -7.2L15.4 -7.2L15.4 -11.9L17.8 -11.85L21.35 -11.75L23.85 -11.75L23.75 -19Q22.65 -18.85 20.85 -18.75L17.5 -18.6L15.4 -18.55L15.4 -23.85L17.95 -23.9L22.1 -24L25.25 -24.1L25.05 -31.5L21.45 -31.3L15.2 -31.05L8.8 -30.85L4.7 -30.75L4.7 -28.35L4.7 -24.3L4.75 -20.35L4.8 -18.3L4.8 -12.55L4.75 -10.45L4.75 -6.75L4.7 -2.75L4.7 0L8.85 0.05L15.6 0.25L22.2 0.4L26 0.45L25.85 -7.3" />
</g>
<g id="PathID_8" transform="matrix(0.352941, 0, 0, 0.352941, 17.65, 17)">
<path style="fill:#FADC14;fill-opacity:1" d="M16.05 0.45L15.95 -1.45L15.85 -5.15L15.75 -9.35L15.75 -12.7L15.75 -13.5L15.85 -13.5L18.55 -9.85L22.15 -5.15L25.45 -0.9Q26.85 0.9 27.2 1.25L36 -6.05L33 -9L29 -12.85L26.1 -15.7L29.25 -18.75L32.75 -22.15L35.4 -24.75L27.6 -31.6L25.65 -29.3L22.2 -25.15L18.5 -20.75L15.85 -17.55L15.75 -17.55L15.75 -18.85L15.85 -23.55L15.95 -28.5L16.05 -31.15L4.65 -31.15L4.65 -28.05L4.75 -22.6L4.8 -17.65L4.8 -13.05L4.75 -7.6L4.65 -2.5L4.65 0.45L16.05 0.45" />
</g>
<g id="PathID_9" transform="matrix(0.352941, 0, 0, 0.352941, 30.75, 17)">
<path style="fill:#FADC14;fill-opacity:1" d="M25.85 -7.3L22.4 -7.2L18.15 -7.2L15.4 -7.2L15.4 -11.9L17.8 -11.85L21.35 -11.75L23.85 -11.75L23.75 -19Q22.65 -18.85 20.85 -18.75L17.5 -18.6L15.4 -18.55L15.4 -23.85L17.95 -23.9L22.1 -24L25.25 -24.1L25.05 -31.5L21.45 -31.3L15.2 -31.05L8.8 -30.85L4.7 -30.75L4.7 -28.35L4.7 -24.3L4.75 -20.35L4.8 -18.3L4.8 -12.55L4.75 -10.45L4.75 -6.75L4.7 -2.75L4.7 0L8.85 0.05L15.6 0.25L22.2 0.4L26 0.45L25.85 -7.3" />
</g>
<g id="PathID_10" transform="matrix(0.352941, 0, 0, 0.352941, 41, 17)">
<path style="fill:#FADC14;fill-opacity:1" d="M23.45 0Q23.35 -0.45 23.3 -1.6L23.25 -3.85L23.2 -5.35L23.2 -8.05Q23.25 -11.75 24.6 -14.5Q25.95 -17.25 28.05 -18.85Q29.75 -20.05 31.65 -20.75Q33.55 -21.45 35.1 -21.75L32.2 -31.65Q29.5 -30.95 27.25 -29.7Q25.05 -28.5 23.35 -27Q21.7 -25.5 20.4 -23.65Q19.1 -21.85 18.35 -19.65L18 -19.65Q17.15 -22.15 16 -23.95Q14.85 -25.8 13.55 -27.05Q11.7 -28.7 9.4 -29.8Q7.15 -30.95 4.8 -31.55L1.2 -21.7L3.65 -21Q5 -20.6 6.4 -19.75Q9 -18.1 10.6 -15.1Q12.2 -12.15 12.25 -7.95L12.25 -6.15L12.15 -4.5L12.05 -1.9L11.95 0L23.45 0" />
</g>
<g id="PathID_11" transform="matrix(0.352941, 0, 0, 0.352941, 53.85, 17)">
<path style="fill:#FADC14;fill-opacity:1" d="M3.95 0.85Q11.2 0.25 15.75 -1.65Q20.35 -3.6 22.5 -6.2Q24.65 -8.85 24.6 -11.55Q24.55 -13.7 23.35 -15.1Q22.15 -16.5 20.55 -17.35Q18.95 -18.2 17.65 -18.7Q15.35 -19.55 14.15 -20.15Q12.95 -20.8 12.9 -21.6Q12.9 -22.95 15.3 -23.4Q17.7 -23.85 22.45 -23.85L21.25 -31.65Q15.05 -31.3 10.6 -29.65Q6.2 -28 3.8 -25.55Q1.45 -23.15 1.45 -20.4Q1.5 -18.4 2.55 -16.95Q3.6 -15.55 5.15 -14.55Q6.75 -13.6 8.25 -12.95Q11.1 -11.7 12.1 -11Q13.1 -10.35 13.05 -9.65Q13 -8.65 11.5 -8Q10 -7.35 7.65 -7.05Q5.35 -6.8 2.8 -6.85L3.95 0.85" />
</g>
<g id="PathID_12" transform="matrix(0.352941, 0, 0, 0.352941, 67.55, 17)">
<path style="fill:#FADC14;fill-opacity:1" d="M20.95 0L20.85 -2.3L20.8 -6.55L20.8 -11.3L20.8 -22.95L22.4 -22.9L25.6 -22.8L28.85 -22.75L30.7 -22.65L30.7 -30.65L27.8 -30.5L23.55 -30.4L19.55 -30.3L17.45 -30.3L13.45 -30.3L11.4 -30.3L7.2 -30.4L2.75 -30.5L-0.15 -30.65L-0.15 -22.65L2.6 -22.75L6.65 -22.85L9.8 -22.95L9.8 -11.95L9.75 -7L9.7 -2.55L9.7 0L20.95 0" />
</g>
<g id="PathID_13" transform="matrix(0.352941, 0, 0, 0.352941, 77.7, 17)">
<path style="fill:#FADC14;fill-opacity:1" d="M19.9 0.7Q25.7 0.65 29.6 -1Q33.5 -2.7 35.8 -5.3Q38.1 -7.9 39.1 -10.8Q40.1 -13.7 40.05 -16.2Q40 -23.4 35.25 -27.35Q30.55 -31.35 22.1 -31.4Q15.25 -31.35 10.75 -28.8Q6.3 -26.25 4.1 -22.3Q1.95 -18.35 1.95 -14.1Q1.9 -10.55 3.8 -7.15Q5.7 -3.8 9.65 -1.55Q13.65 0.65 19.9 0.7M20.4 -6.3Q17.65 -6.3 15.75 -8.4Q13.9 -10.5 13.8 -14.75Q13.85 -18.75 15.8 -21.5Q17.75 -24.25 21.5 -24.4Q24.7 -24.35 26.4 -22.15Q28.15 -20 28.2 -15.9Q28.15 -11.1 26.05 -8.7Q24 -6.3 20.4 -6.3" />
</g>
<g id="PathID_14" transform="matrix(0.352941, 0, 0, 0.352941, 97.05, 17)">
<path style="fill:#FADC14;fill-opacity:1" d="M19.9 0.7Q25.7 0.65 29.6 -1Q33.5 -2.7 35.8 -5.3Q38.1 -7.9 39.1 -10.8Q40.1 -13.7 40.05 -16.2Q40 -23.4 35.25 -27.35Q30.55 -31.35 22.1 -31.4Q15.25 -31.35 10.75 -28.8Q6.3 -26.25 4.1 -22.3Q1.95 -18.35 1.95 -14.1Q1.9 -10.55 3.8 -7.15Q5.7 -3.8 9.65 -1.55Q13.65 0.65 19.9 0.7M20.4 -6.3Q17.65 -6.3 15.75 -8.4Q13.9 -10.5 13.8 -14.75Q13.85 -18.75 15.8 -21.5Q17.75 -24.25 21.5 -24.4Q24.7 -24.35 26.4 -22.15Q28.15 -20 28.2 -15.9Q28.15 -11.1 26.05 -8.7Q24 -6.3 20.4 -6.3" />
</g>
<g id="PathID_15" transform="matrix(0.352941, 0, 0, 0.352941, 111.8, 17)">
<path style="fill:#FADC14;fill-opacity:1" d="M15.5 0L15.5 -1.8L15.45 -4.45L15.45 -6.3L15.45 -7.45Q21.05 -8.3 24.8 -10.35Q28.6 -12.45 30.55 -15.25Q32.5 -18.1 32.5 -21.15Q32.4 -24.8 29.9 -26.85Q27.4 -28.9 23.8 -29.65Q21 -30.3 16.45 -30.55Q11.95 -30.8 4.65 -30.75L4.65 -28.95L4.65 -25.6L4.7 -22.15L4.75 -20.15L4.75 -15.4L4.7 -11.9L4.65 -7.2L4.65 -2.75L4.65 0L15.5 0M15.45 -24.5Q18.9 -24.2 20.2 -23Q21.55 -21.8 21.5 -19.95Q21.45 -17.95 20.45 -16.6Q19.5 -15.3 18.1 -14.6Q16.75 -13.9 15.45 -13.85L15.45 -24.5" />
</g>
<g id="PathID_16" transform="matrix(0.352941, 0, 0, 0.352941, 123.85, 17)">
<path style="fill:#FADC14;fill-opacity:1" d="M25.85 -7.3L22.4 -7.2L18.15 -7.2L15.4 -7.2L15.4 -11.9L17.8 -11.85L21.35 -11.75L23.85 -11.75L23.75 -19Q22.65 -18.85 20.85 -18.75L17.5 -18.6L15.4 -18.55L15.4 -23.85L17.95 -23.9L22.1 -24L25.25 -24.1L25.05 -31.5L21.45 -31.3L15.2 -31.05L8.8 -30.85L4.7 -30.75L4.7 -28.35L4.7 -24.3L4.75 -20.35L4.8 -18.3L4.8 -12.55L4.75 -10.45L4.75 -6.75L4.7 -2.75L4.7 0L8.85 0.05L15.6 0.25L22.2 0.4L26 0.45L25.85 -7.3" />
</g>
<g id="PathID_17" transform="matrix(0.352941, 0, 0, 0.352941, 134.1, 17)">
<path style="fill:#FADC14;fill-opacity:1" d="M13.1 0.3L13.1 -2.2L13.05 -6.65L13.05 -11.3L13.05 -14.35L16.55 -11.7L22.85 -7.2L29.6 -2.45Q32.85 -0.25 34.75 0.85L35.5 0.65L35.8 -5.65L36.35 -14.55L36.9 -23.75L37.45 -30.75L27.5 -30.95L27.45 -28.15L27.45 -23.7L27.5 -19.15L27.55 -16.1Q27.1 -16.55 24.65 -18.3L18.75 -22.45Q15.3 -24.9 11.8 -27.25Q8.3 -29.65 5.8 -31.25L4.95 -31L4.6 -25.85L4.15 -18.5L3.7 -10.55L3.3 -3.8L3.1 0L13.1 0.3" />
</g>
<g id="PathID_18" transform="matrix(0.352941, 0, 0, 0.352941, 152.95, 17)">
<path style="fill:#FADC14;fill-opacity:1" d="M20.95 0L20.85 -2.3L20.8 -6.55L20.8 -11.3L20.8 -22.95L22.4 -22.9L25.6 -22.8L28.85 -22.75L30.7 -22.65L30.7 -30.65L27.8 -30.5L23.55 -30.4L19.55 -30.3L17.45 -30.3L13.45 -30.3L11.4 -30.3L7.2 -30.4L2.75 -30.5L-0.15 -30.65L-0.15 -22.65L2.6 -22.75L6.65 -22.85L9.8 -22.95L9.8 -11.95L9.75 -7L9.7 -2.55L9.7 0L20.95 0" />
</g>
<g id="PathID_19" transform="matrix(0.352941, 0, 0, 0.352941, 38, 68)">
<path style="fill:#FADC14;fill-opacity:1" d="M20.95 0L20.85 -2.3L20.8 -6.55L20.8 -11.3L20.8 -22.95L22.4 -22.9L25.6 -22.8L28.85 -22.75L30.7 -22.65L30.7 -30.65L27.8 -30.5L23.55 -30.4L19.55 -30.3L17.45 -30.3L13.45 -30.3L11.4 -30.3L7.2 -30.4L2.75 -30.5L-0.15 -30.65L-0.15 -22.65L2.6 -22.75L6.65 -22.85L9.8 -22.95L9.8 -11.95L9.75 -7L9.7 -2.55L9.7 0L20.95 0" />
</g>
<g id="PathID_20" transform="matrix(0.352941, 0, 0, 0.352941, 48.8, 68)">
<path style="fill:#FADC14;fill-opacity:1" d="M16.1 0L16 -2.65L15.9 -6.9L15.85 -10.25L15.85 -11.5L27.1 -12.35L27.1 -9.3L27.05 -6.85L26.95 -2.9L26.85 0L38.3 0L38.2 -2.15L38.1 -6.2L38.05 -10.2L38.05 -12.25L38.05 -16.55L38.05 -19.05L38.15 -23.65L38.2 -28.25L38.3 -30.75L26.85 -30.75Q26.95 -30.15 26.95 -28.15L27.05 -24.2L27.1 -21.75L27.1 -20.15L15.85 -19.3L15.85 -20.85L15.85 -22.6L15.95 -25.75L16.05 -28.95L16.15 -30.75L4.65 -30.75L4.75 -28.4L4.8 -24.15L4.85 -20L4.9 -17.85L4.9 -13.15L4.85 -10.85L4.85 -6.85L4.8 -2.65L4.8 0L16.1 0" />
</g>
<g id="PathID_21" transform="matrix(0.352941, 0, 0, 0.352941, 63.95, 68)">
<path style="fill:#FADC14;fill-opacity:1" d="M25.85 -7.3L22.4 -7.2L18.15 -7.2L15.4 -7.2L15.4 -11.9L17.8 -11.85L21.35 -11.75L23.85 -11.75L23.75 -19Q22.65 -18.85 20.85 -18.75L17.5 -18.6L15.4 -18.55L15.4 -23.85L17.95 -23.9L22.1 -24L25.25 -24.1L25.05 -31.5L21.45 -31.3L15.2 -31.05L8.8 -30.85L4.7 -30.75L4.7 -28.35L4.7 -24.3L4.75 -20.35L4.8 -18.3L4.8 -12.55L4.75 -10.45L4.75 -6.75L4.7 -2.75L4.7 0L8.85 0.05L15.6 0.25L22.2 0.4L26 0.45L25.85 -7.3" />
</g>
<g id="PathID_22" transform="matrix(0.352941, 0, 0, 0.352941, 78.7, 68)">
<path style="fill:#FADC14;fill-opacity:1" d="M15.45 -24.55Q18.9 -24.45 20.2 -23.35Q21.5 -22.3 21.45 -20.75Q21.35 -18.35 19.75 -16.7Q18.2 -15.1 16.3 -14.2L18.35 -11.2L21.75 -6.25L25.15 -1.35L27.15 1.5L36.2 -5.1L33.55 -7.7L29.6 -11.45L26.85 -14.15Q29.65 -15.9 31.15 -18Q32.65 -20.15 32.65 -22.85Q32.65 -25.85 29.95 -27.7Q27.25 -29.6 22.15 -30.25Q18.75 -30.65 14.2 -30.7Q9.65 -30.8 4.65 -30.75L4.75 -28.8L4.8 -25.15L4.85 -21.45L4.9 -19.2L4.9 -12.2L4.9 -10L4.85 -6.1L4.8 -2.2L4.75 0L15.7 0L15.6 -2.1L15.5 -6.25L15.45 -10.55L15.45 -13.25L15.45 -24.55" />
</g>
<g id="PathID_23" transform="matrix(0.352941, 0, 0, 0.352941, 91.4, 68)">
<path style="fill:#FADC14;fill-opacity:1" d="M15.65 -17.75L15.7 -23.25L15.8 -28.2L15.9 -30.75L4.6 -30.75L4.6 -28.4L4.6 -24.15L4.65 -20L4.7 -17.8L4.7 -13.15L4.65 -10.85L4.65 -6.85L4.6 -2.65L4.6 0L15.9 0L15.8 -2.85L15.7 -7.95L15.65 -13.1L15.65 -17.75" />
</g>
<g id="PathID_24" transform="matrix(0.352941, 0, 0, 0.352941, 98.5, 68)">
<path style="fill:#FADC14;fill-opacity:1" d="M31.4 -9.9L31.4 -11.75L31.45 -14.2L21 -14.2L21 -12.1L21.1 -10.25L21.1 -6.95Q19.35 -6.9 17.55 -7.4Q15.8 -7.95 14.55 -9.2Q13.3 -10.5 13.25 -12.65Q13.35 -15.6 15.7 -17.65Q18.05 -19.75 21.45 -20.95Q24.9 -22.2 28.25 -22.55L26.1 -31.5Q16.5 -29.65 11.15 -26.1Q5.8 -22.6 3.65 -18.75Q1.5 -14.95 1.6 -12.15Q1.55 -8.7 3.55 -5.8Q5.6 -2.9 9.9 -1.1Q14.2 0.65 21.1 0.7Q24.7 0.7 27.55 0.3Q30.4 -0.05 31.5 -0.3L31.45 -2L31.4 -4.5L31.4 -6.7L31.4 -9.9" />
</g>
<g id="PathID_25" transform="matrix(0.352941, 0, 0, 0.352941, 110.75, 68)">
<path style="fill:#FADC14;fill-opacity:1" d="M16.1 0L16 -2.65L15.9 -6.9L15.85 -10.25L15.85 -11.5L27.1 -12.35L27.1 -9.3L27.05 -6.85L26.95 -2.9L26.85 0L38.3 0L38.2 -2.15L38.1 -6.2L38.05 -10.2L38.05 -12.25L38.05 -16.55L38.05 -19.05L38.15 -23.65L38.2 -28.25L38.3 -30.75L26.85 -30.75Q26.95 -30.15 26.95 -28.15L27.05 -24.2L27.1 -21.75L27.1 -20.15L15.85 -19.3L15.85 -20.85L15.85 -22.6L15.95 -25.75L16.05 -28.95L16.15 -30.75L4.65 -30.75L4.75 -28.4L4.8 -24.15L4.85 -20L4.9 -17.85L4.9 -13.15L4.85 -10.85L4.85 -6.85L4.8 -2.65L4.8 0L16.1 0" />
</g>
<g id="PathID_26" transform="matrix(0.352941, 0, 0, 0.352941, 125.9, 68)">
<path style="fill:#FADC14;fill-opacity:1" d="M20.95 0L20.85 -2.3L20.8 -6.55L20.8 -11.3L20.8 -22.95L22.4 -22.9L25.6 -22.8L28.85 -22.75L30.7 -22.65L30.7 -30.65L27.8 -30.5L23.55 -30.4L19.55 -30.3L17.45 -30.3L13.45 -30.3L11.4 -30.3L7.2 -30.4L2.75 -30.5L-0.15 -30.65L-0.15 -22.65L2.6 -22.75L6.65 -22.85L9.8 -22.95L9.8 -11.95L9.75 -7L9.7 -2.55L9.7 0L20.95 0" />
</g>
<g id="PathID_27" transform="matrix(0.352941, 0, 0, 0.352941, 141.2, 68)">
<path style="fill:#FADC14;fill-opacity:1" d="M15.5 0L15.5 -1.8L15.45 -4.45L15.45 -6.3L15.45 -7.45Q21.05 -8.3 24.8 -10.35Q28.6 -12.45 30.55 -15.25Q32.5 -18.1 32.5 -21.15Q32.4 -24.8 29.9 -26.85Q27.4 -28.9 23.8 -29.65Q21 -30.3 16.45 -30.55Q11.95 -30.8 4.65 -30.75L4.65 -28.95L4.65 -25.6L4.7 -22.15L4.75 -20.15L4.75 -15.4L4.7 -11.9L4.65 -7.2L4.65 -2.75L4.65 0L15.5 0M15.45 -24.5Q18.9 -24.2 20.2 -23Q21.55 -21.8 21.5 -19.95Q21.45 -17.95 20.45 -16.6Q19.5 -15.3 18.1 -14.6Q16.75 -13.9 15.45 -13.85L15.45 -24.5" />
</g>
<g id="PathID_28" transform="matrix(0.352941, 0, 0, 0.352941, 153.25, 68)">
<path style="fill:#FADC14;fill-opacity:1" d="M4.65 -30.75L4.65 -28.55L4.7 -24.5L4.75 -20.45L4.8 -18.35L4.8 -12.55L4.75 -10.45L4.75 -6.75L4.7 -2.75L4.7 0L9.5 0.05L16.35 0.25L22.75 0.4L26.1 0.45L26.05 -8L22 -7.85L18.1 -7.75L15.75 -7.75L15.75 -15.35L15.85 -21.55L15.95 -27.5L16.05 -30.75L4.65 -30.75" />
</g>
<g id="PathID_29" transform="matrix(0.352941, 0, 0, 0.352941, 162.85, 68)">
<path style="fill:#FADC14;fill-opacity:1" d="M9.15 1.5L10.3 -0.8L11.45 -3.1L12.1 -4.4L25.7 -5.05L26.6 -3.6L28.2 -1.05L29.8 1.45L39.15 -3.7L36.05 -8.1L30.7 -16L24.65 -24.9Q21.65 -29.3 19.45 -32.35L18.5 -32.35Q16.65 -29.75 13.8 -25.3L7.95 -16.1L2.75 -7.7L0 -3.2L9.15 1.5M14.95 -11.05L16.9 -14.9L18.8 -18.55Q19.45 -17.15 20.5 -15.2L22.6 -11.4L14.95 -11.05" />
</g>
<g id="PathID_30" transform="matrix(0.352941, 0, 0, 0.352941, 176.7, 68)">
<path style="fill:#FADC14;fill-opacity:1" d="M27.65 -7.9L25.65 -7.75L23.15 -7.65Q18.5 -7.7 16 -9.25Q13.5 -10.85 13.45 -13.45Q13.4 -16.5 16.55 -19.05Q19.75 -21.6 26.85 -22.85L24.8 -31.4Q16.8 -29.9 11.65 -26.75Q6.5 -23.65 4 -19.8Q1.55 -16 1.6 -12.3Q1.55 -9.25 3.65 -6.25Q5.75 -3.3 10.4 -1.3Q15.05 0.65 22.6 0.7Q24.25 0.7 25.55 0.6L28.1 0.35L27.65 -7.9" />
</g>
<g id="PathID_31" transform="matrix(0.352941, 0, 0, 0.352941, 187.35, 68)">
<path style="fill:#FADC14;fill-opacity:1" d="M25.85 -7.3L22.4 -7.2L18.15 -7.2L15.4 -7.2L15.4 -11.9L17.8 -11.85L21.35 -11.75L23.85 -11.75L23.75 -19Q22.65 -18.85 20.85 -18.75L17.5 -18.6L15.4 -18.55L15.4 -23.85L17.95 -23.9L22.1 -24L25.25 -24.1L25.05 -31.5L21.45 -31.3L15.2 -31.05L8.8 -30.85L4.7 -30.75L4.7 -28.35L4.7 -24.3L4.75 -20.35L4.8 -18.3L4.8 -12.55L4.75 -10.45L4.75 -6.75L4.7 -2.75L4.7 0L8.85 0.05L15.6 0.25L22.2 0.4L26 0.45L25.85 -7.3" />
</g>
<g id="PathID_32" transform="matrix(0.352941, 0, 0, 0.352941, 197.6, 68)">
<path style="fill:#FADC14;fill-opacity:1" d="M3.95 0.85Q11.2 0.25 15.75 -1.65Q20.35 -3.6 22.5 -6.2Q24.65 -8.85 24.6 -11.55Q24.55 -13.7 23.35 -15.1Q22.15 -16.5 20.55 -17.35Q18.95 -18.2 17.65 -18.7Q15.35 -19.55 14.15 -20.15Q12.95 -20.8 12.9 -21.6Q12.9 -22.95 15.3 -23.4Q17.7 -23.85 22.45 -23.85L21.25 -31.65Q15.05 -31.3 10.6 -29.65Q6.2 -28 3.8 -25.55Q1.45 -23.15 1.45 -20.4Q1.5 -18.4 2.55 -16.95Q3.6 -15.55 5.15 -14.55Q6.75 -13.6 8.25 -12.95Q11.1 -11.7 12.1 -11Q13.1 -10.35 13.05 -9.65Q13 -8.65 11.5 -8Q10 -7.35 7.65 -7.05Q5.35 -6.8 2.8 -6.85L3.95 0.85" />
</g>
<g id="PathID_33" transform="matrix(0.352941, 0, 0, 0.352941, 211.3, 68)">
<path style="fill:#FADC14;fill-opacity:1" d="M20.95 0L20.85 -2.3L20.8 -6.55L20.8 -11.3L20.8 -22.95L22.4 -22.9L25.6 -22.8L28.85 -22.75L30.7 -22.65L30.7 -30.65L27.8 -30.5L23.55 -30.4L19.55 -30.3L17.45 -30.3L13.45 -30.3L11.4 -30.3L7.2 -30.4L2.75 -30.5L-0.15 -30.65L-0.15 -22.65L2.6 -22.75L6.65 -22.85L9.8 -22.95L9.8 -11.95L9.75 -7L9.7 -2.55L9.7 0L20.95 0" />
</g>
<g id="PathID_34" transform="matrix(0.352941, 0, 0, 0.352941, 221.45, 68)">
<path style="fill:#FADC14;fill-opacity:1" d="M19.9 0.7Q25.7 0.65 29.6 -1Q33.5 -2.7 35.8 -5.3Q38.1 -7.9 39.1 -10.8Q40.1 -13.7 40.05 -16.2Q40 -23.4 35.25 -27.35Q30.55 -31.35 22.1 -31.4Q15.25 -31.35 10.75 -28.8Q6.3 -26.25 4.1 -22.3Q1.95 -18.35 1.95 -14.1Q1.9 -10.55 3.8 -7.15Q5.7 -3.8 9.65 -1.55Q13.65 0.65 19.9 0.7M20.4 -6.3Q17.65 -6.3 15.75 -8.4Q13.9 -10.5 13.8 -14.75Q13.85 -18.75 15.8 -21.5Q17.75 -24.25 21.5 -24.4Q24.7 -24.35 26.4 -22.15Q28.15 -20 28.2 -15.9Q28.15 -11.1 26.05 -8.7Q24 -6.3 20.4 -6.3" />
</g>
<g id="PathID_35" transform="matrix(0.352941, 0, 0, 0.352941, 240.8, 68)">
<path style="fill:#FADC14;fill-opacity:1" d="M13.1 0.3L13.1 -2.2L13.05 -6.65L13.05 -11.3L13.05 -14.35L16.55 -11.7L22.85 -7.2L29.6 -2.45Q32.85 -0.25 34.75 0.85L35.5 0.65L35.8 -5.65L36.35 -14.55L36.9 -23.75L37.45 -30.75L27.5 -30.95L27.45 -28.15L27.45 -23.7L27.5 -19.15L27.55 -16.1Q27.1 -16.55 24.65 -18.3L18.75 -22.45Q15.3 -24.9 11.8 -27.25Q8.3 -29.65 5.8 -31.25L4.95 -31L4.6 -25.85L4.15 -18.5L3.7 -10.55L3.3 -3.8L3.1 0L13.1 0.3" />
</g>
<g id="PathID_36" transform="matrix(0.352941, 0, 0, 0.352941, 255.15, 68)">
<path style="fill:#FADC14;fill-opacity:1" d="M9.15 1.5L10.3 -0.8L11.45 -3.1L12.1 -4.4L25.7 -5.05L26.6 -3.6L28.2 -1.05L29.8 1.45L39.15 -3.7L36.05 -8.1L30.7 -16L24.65 -24.9Q21.65 -29.3 19.45 -32.35L18.5 -32.35Q16.65 -29.75 13.8 -25.3L7.95 -16.1L2.75 -7.7L0 -3.2L9.15 1.5M14.95 -11.05L16.9 -14.9L18.8 -18.55Q19.45 -17.15 20.5 -15.2L22.6 -11.4L14.95 -11.05" />
</g>
<g id="PathID_37" transform="matrix(0.352941, 0, 0, 0.352941, 267.7, 68)">
<path style="fill:#FADC14;fill-opacity:1" d="M28.1 -31.7L26.6 -28.75L23.85 -23.35L20.95 -17.65L19.05 -13.8L17.2 -17.55L14.45 -23.1L11.8 -28.5L10.25 -31.7L0.05 -26.55L2.75 -22.1L7.7 -14.05L13.3 -5.15Q16.05 -0.85 17.95 1.9L18.9 1.9L22.05 -2.8L26.7 -9.7L31.65 -17.2L35.8 -23.5L38.1 -26.95L28.1 -31.7" />
</g>
<g id="PathID_38" transform="matrix(0.352941, 0, 0, 0.352941, 280.9, 68)">
<path style="fill:#FADC14;fill-opacity:1" d="M15.65 -17.75L15.7 -23.25L15.8 -28.2L15.9 -30.75L4.6 -30.75L4.6 -28.4L4.6 -24.15L4.65 -20L4.7 -17.8L4.7 -13.15L4.65 -10.85L4.65 -6.85L4.6 -2.65L4.6 0L15.9 0L15.8 -2.85L15.7 -7.95L15.65 -13.1L15.65 -17.75" />
</g>
<g id="PathID_39" transform="matrix(0.352941, 0, 0, 0.352941, 288, 68)">
<path style="fill:#FADC14;fill-opacity:1" d="M31.4 -9.9L31.4 -11.75L31.45 -14.2L21 -14.2L21 -12.1L21.1 -10.25L21.1 -6.95Q19.35 -6.9 17.55 -7.4Q15.8 -7.95 14.55 -9.2Q13.3 -10.5 13.25 -12.65Q13.35 -15.6 15.7 -17.65Q18.05 -19.75 21.45 -20.95Q24.9 -22.2 28.25 -22.55L26.1 -31.5Q16.5 -29.65 11.15 -26.1Q5.8 -22.6 3.65 -18.75Q1.5 -14.95 1.6 -12.15Q1.55 -8.7 3.55 -5.8Q5.6 -2.9 9.9 -1.1Q14.2 0.65 21.1 0.7Q24.7 0.7 27.55 0.3Q30.4 -0.05 31.5 -0.3L31.45 -2L31.4 -4.5L31.4 -6.7L31.4 -9.9" />
</g>
<g id="PathID_40" transform="matrix(0.352941, 0, 0, 0.352941, 300.25, 68)">
<path style="fill:#FADC14;fill-opacity:1" d="M9.15 1.5L10.3 -0.8L11.45 -3.1L12.1 -4.4L25.7 -5.05L26.6 -3.6L28.2 -1.05L29.8 1.45L39.15 -3.7L36.05 -8.1L30.7 -16L24.65 -24.9Q21.65 -29.3 19.45 -32.35L18.5 -32.35Q16.65 -29.75 13.8 -25.3L7.95 -16.1L2.75 -7.7L0 -3.2L9.15 1.5M14.95 -11.05L16.9 -14.9L18.8 -18.55Q19.45 -17.15 20.5 -15.2L22.6 -11.4L14.95 -11.05" />
</g>
<g id="PathID_41" transform="matrix(0.352941, 0, 0, 0.352941, 313.45, 68)">
<path style="fill:#FADC14;fill-opacity:1" d="M20.95 0L20.85 -2.3L20.8 -6.55L20.8 -11.3L20.8 -22.95L22.4 -22.9L25.6 -22.8L28.85 -22.75L30.7 -22.65L30.7 -30.65L27.8 -30.5L23.55 -30.4L19.55 -30.3L17.45 -30.3L13.45 -30.3L11.4 -30.3L7.2 -30.4L2.75 -30.5L-0.15 -30.65L-0.15 -22.65L2.6 -22.75L6.65 -22.85L9.8 -22.95L9.8 -11.95L9.75 -7L9.7 -2.55L9.7 0L20.95 0" />
</g>
<g id="PathID_42" transform="matrix(0.352941, 0, 0, 0.352941, 324.25, 68)">
<path style="fill:#FADC14;fill-opacity:1" d="M25.85 -7.3L22.4 -7.2L18.15 -7.2L15.4 -7.2L15.4 -11.9L17.8 -11.85L21.35 -11.75L23.85 -11.75L23.75 -19Q22.65 -18.85 20.85 -18.75L17.5 -18.6L15.4 -18.55L15.4 -23.85L17.95 -23.9L22.1 -24L25.25 -24.1L25.05 -31.5L21.45 -31.3L15.2 -31.05L8.8 -30.85L4.7 -30.75L4.7 -28.35L4.7 -24.3L4.75 -20.35L4.8 -18.3L4.8 -12.55L4.75 -10.45L4.75 -6.75L4.7 -2.75L4.7 0L8.85 0.05L15.6 0.25L22.2 0.4L26 0.45L25.85 -7.3" />
</g>
<g id="PathID_43" transform="matrix(0.352941, 0, 0, 0.352941, -78.7, 93)">
<path style="fill:#FADC14;fill-opacity:1" d="M23.45 0Q23.35 -0.45 23.3 -1.6L23.25 -3.85L23.2 -5.35L23.2 -8.05Q23.25 -11.75 24.6 -14.5Q25.95 -17.25 28.05 -18.85Q29.75 -20.05 31.65 -20.75Q33.55 -21.45 35.1 -21.75L32.2 -31.65Q29.5 -30.95 27.25 -29.7Q25.05 -28.5 23.35 -27Q21.7 -25.5 20.4 -23.65Q19.1 -21.85 18.35 -19.65L18 -19.65Q17.15 -22.15 16 -23.95Q14.85 -25.8 13.55 -27.05Q11.7 -28.7 9.4 -29.8Q7.15 -30.95 4.8 -31.55L1.2 -21.7L3.65 -21Q5 -20.6 6.4 -19.75Q9 -18.1 10.6 -15.1Q12.2 -12.15 12.25 -7.95L12.25 -6.15L12.15 -4.5L12.05 -1.9L11.95 0L23.45 0" />
</g>
<g id="PathID_44" transform="matrix(0.352941, 0, 0, 0.352941, -66.7, 93)">
<path style="fill:#FADC14;fill-opacity:1" d="M19.9 0.7Q25.7 0.65 29.6 -1Q33.5 -2.7 35.8 -5.3Q38.1 -7.9 39.1 -10.8Q40.1 -13.7 40.05 -16.2Q40 -23.4 35.25 -27.35Q30.55 -31.35 22.1 -31.4Q15.25 -31.35 10.75 -28.8Q6.3 -26.25 4.1 -22.3Q1.95 -18.35 1.95 -14.1Q1.9 -10.55 3.8 -7.15Q5.7 -3.8 9.65 -1.55Q13.65 0.65 19.9 0.7M20.4 -6.3Q17.65 -6.3 15.75 -8.4Q13.9 -10.5 13.8 -14.75Q13.85 -18.75 15.8 -21.5Q17.75 -24.25 21.5 -24.4Q24.7 -24.35 26.4 -22.15Q28.15 -20 28.2 -15.9Q28.15 -11.1 26.05 -8.7Q24 -6.3 20.4 -6.3" />
</g>
<g id="PathID_45" transform="matrix(0.352941, 0, 0, 0.352941, -51.85, 93)">
<path style="fill:#FADC14;fill-opacity:1" d="M14.3 -22.95L14.35 -27.75Q14.45 -29.65 14.6 -30.45L3.2 -30.45L3.15 -28.75L3.15 -26.25L3.15 -23.9L3.15 -21.55Q3.1 -16.4 3.4 -13.25Q3.75 -10.1 4.4 -8.15Q5.1 -6.25 6.25 -4.75Q8 -2.3 10.3 -1.1Q12.65 0.05 15.05 0.4Q17.45 0.75 19.4 0.7Q23.3 0.7 26.6 -0.5Q29.95 -1.75 32.1 -4.15Q34.6 -7.1 35.4 -11.2Q36.2 -15.3 36.1 -21.45L36.1 -23.5L36.05 -28.25L36.05 -31.15L24.85 -31.15L25 -27.9L25.15 -23.6L25.15 -21.95Q25.15 -17.1 25.05 -14.55Q25 -12 24.7 -10.75Q24.45 -9.5 23.8 -8.7Q23.15 -7.8 22.2 -7.3Q21.25 -6.85 20 -6.8Q18.95 -6.8 18.05 -7.15Q17.15 -7.5 16.4 -8.25Q15.1 -9.6 14.7 -12.25Q14.3 -14.95 14.3 -20.05L14.3 -22.95" />
</g>
<g id="PathID_46" transform="matrix(0.352941, 0, 0, 0.352941, -33.45, 93)">
<path style="fill:#FADC14;fill-opacity:1" d="M27.65 -7.9L25.65 -7.75L23.15 -7.65Q18.5 -7.7 16 -9.25Q13.5 -10.85 13.45 -13.45Q13.4 -16.5 16.55 -19.05Q19.75 -21.6 26.85 -22.85L24.8 -31.4Q16.8 -29.9 11.65 -26.75Q6.5 -23.65 4 -19.8Q1.55 -16 1.6 -12.3Q1.55 -9.25 3.65 -6.25Q5.75 -3.3 10.4 -1.3Q15.05 0.65 22.6 0.7Q24.25 0.7 25.55 0.6L28.1 0.35L27.65 -7.9" />
</g>
<g id="PathID_47" transform="matrix(0.352941, 0, 0, 0.352941, -22.8, 93)">
<path style="fill:#FADC14;fill-opacity:1" d="M9.15 1.5L10.3 -0.8L11.45 -3.1L12.1 -4.4L25.7 -5.05L26.6 -3.6L28.2 -1.05L29.8 1.45L39.15 -3.7L36.05 -8.1L30.7 -16L24.65 -24.9Q21.65 -29.3 19.45 -32.35L18.5 -32.35Q16.65 -29.75 13.8 -25.3L7.95 -16.1L2.75 -7.7L0 -3.2L9.15 1.5M14.95 -11.05L16.9 -14.9L18.8 -18.55Q19.45 -17.15 20.5 -15.2L22.6 -11.4L14.95 -11.05" />
</g>
<g id="PathID_48" transform="matrix(0.352941, 0, 0, 0.352941, -8.95, 93)">
<path style="fill:#FADC14;fill-opacity:1" d="M13.1 0.3L13.1 -2.2L13.05 -6.65L13.05 -11.3L13.05 -14.35L16.55 -11.7L22.85 -7.2L29.6 -2.45Q32.85 -0.25 34.75 0.85L35.5 0.65L35.8 -5.65L36.35 -14.55L36.9 -23.75L37.45 -30.75L27.5 -30.95L27.45 -28.15L27.45 -23.7L27.5 -19.15L27.55 -16.1Q27.1 -16.55 24.65 -18.3L18.75 -22.45Q15.3 -24.9 11.8 -27.25Q8.3 -29.65 5.8 -31.25L4.95 -31L4.6 -25.85L4.15 -18.5L3.7 -10.55L3.3 -3.8L3.1 0L13.1 0.3" />
</g>
<g id="PathID_49" transform="matrix(0.352941, 0, 0, 0.352941, 9.9, 93)">
<path style="fill:#FADC14;fill-opacity:1" d="M14.3 -22.95L14.35 -27.75Q14.45 -29.65 14.6 -30.45L3.2 -30.45L3.15 -28.75L3.15 -26.25L3.15 -23.9L3.15 -21.55Q3.1 -16.4 3.4 -13.25Q3.75 -10.1 4.4 -8.15Q5.1 -6.25 6.25 -4.75Q8 -2.3 10.3 -1.1Q12.65 0.05 15.05 0.4Q17.45 0.75 19.4 0.7Q23.3 0.7 26.6 -0.5Q29.95 -1.75 32.1 -4.15Q34.6 -7.1 35.4 -11.2Q36.2 -15.3 36.1 -21.45L36.1 -23.5L36.05 -28.25L36.05 -31.15L24.85 -31.15L25 -27.9L25.15 -23.6L25.15 -21.95Q25.15 -17.1 25.05 -14.55Q25 -12 24.7 -10.75Q24.45 -9.5 23.8 -8.7Q23.15 -7.8 22.2 -7.3Q21.25 -6.85 20 -6.8Q18.95 -6.8 18.05 -7.15Q17.15 -7.5 16.4 -8.25Q15.1 -9.6 14.7 -12.25Q14.3 -14.95 14.3 -20.05L14.3 -22.95" />
</g>
<g id="PathID_50" transform="matrix(0.352941, 0, 0, 0.352941, 23.8, 93)">
<path style="fill:#FADC14;fill-opacity:1" d="M3.95 0.85Q11.2 0.25 15.75 -1.65Q20.35 -3.6 22.5 -6.2Q24.65 -8.85 24.6 -11.55Q24.55 -13.7 23.35 -15.1Q22.15 -16.5 20.55 -17.35Q18.95 -18.2 17.65 -18.7Q15.35 -19.55 14.15 -20.15Q12.95 -20.8 12.9 -21.6Q12.9 -22.95 15.3 -23.4Q17.7 -23.85 22.45 -23.85L21.25 -31.65Q15.05 -31.3 10.6 -29.65Q6.2 -28 3.8 -25.55Q1.45 -23.15 1.45 -20.4Q1.5 -18.4 2.55 -16.95Q3.6 -15.55 5.15 -14.55Q6.75 -13.6 8.25 -12.95Q11.1 -11.7 12.1 -11Q13.1 -10.35 13.05 -9.65Q13 -8.65 11.5 -8Q10 -7.35 7.65 -7.05Q5.35 -6.8 2.8 -6.85L3.95 0.85" />
</g>
<g id="PathID_51" transform="matrix(0.352941, 0, 0, 0.352941, 33, 93)">
<path style="fill:#FADC14;fill-opacity:1" d="M25.85 -7.3L22.4 -7.2L18.15 -7.2L15.4 -7.2L15.4 -11.9L17.8 -11.85L21.35 -11.75L23.85 -11.75L23.75 -19Q22.65 -18.85 20.85 -18.75L17.5 -18.6L15.4 -18.55L15.4 -23.85L17.95 -23.9L22.1 -24L25.25 -24.1L25.05 -31.5L21.45 -31.3L15.2 -31.05L8.8 -30.85L4.7 -30.75L4.7 -28.35L4.7 -24.3L4.75 -20.35L4.8 -18.3L4.8 -12.55L4.75 -10.45L4.75 -6.75L4.7 -2.75L4.7 0L8.85 0.05L15.6 0.25L22.2 0.4L26 0.45L25.85 -7.3" />
</g>
<g id="PathID_52" transform="matrix(0.352941, 0, 0, 0.352941, 47.75, 93)">
<path style="fill:#FADC14;fill-opacity:1" d="M20.95 0L20.85 -2.3L20.8 -6.55L20.8 -11.3L20.8 -22.95L22.4 -22.9L25.6 -22.8L28.85 -22.75L30.7 -22.65L30.7 -30.65L27.8 -30.5L23.55 -30.4L19.55 -30.3L17.45 -30.3L13.45 -30.3L11.4 -30.3L7.2 -30.4L2.75 -30.5L-0.15 -30.65L-0.15 -22.65L2.6 -22.75L6.65 -22.85L9.8 -22.95L9.8 -11.95L9.75 -7L9.7 -2.55L9.7 0L20.95 0" />
</g>
<g id="PathID_53" transform="matrix(0.352941, 0, 0, 0.352941, 58.55, 93)">
<path style="fill:#FADC14;fill-opacity:1" d="M16.1 0L16 -2.65L15.9 -6.9L15.85 -10.25L15.85 -11.5L27.1 -12.35L27.1 -9.3L27.05 -6.85L26.95 -2.9L26.85 0L38.3 0L38.2 -2.15L38.1 -6.2L38.05 -10.2L38.05 -12.25L38.05 -16.55L38.05 -19.05L38.15 -23.65L38.2 -28.25L38.3 -30.75L26.85 -30.75Q26.95 -30.15 26.95 -28.15L27.05 -24.2L27.1 -21.75L27.1 -20.15L15.85 -19.3L15.85 -20.85L15.85 -22.6L15.95 -25.75L16.05 -28.95L16.15 -30.75L4.65 -30.75L4.75 -28.4L4.8 -24.15L4.85 -20L4.9 -17.85L4.9 -13.15L4.85 -10.85L4.85 -6.85L4.8 -2.65L4.8 0L16.1 0" />
</g>
<g id="PathID_54" transform="matrix(0.352941, 0, 0, 0.352941, 73.7, 93)">
<path style="fill:#FADC14;fill-opacity:1" d="M25.85 -7.3L22.4 -7.2L18.15 -7.2L15.4 -7.2L15.4 -11.9L17.8 -11.85L21.35 -11.75L23.85 -11.75L23.75 -19Q22.65 -18.85 20.85 -18.75L17.5 -18.6L15.4 -18.55L15.4 -23.85L17.95 -23.9L22.1 -24L25.25 -24.1L25.05 -31.5L21.45 -31.3L15.2 -31.05L8.8 -30.85L4.7 -30.75L4.7 -28.35L4.7 -24.3L4.75 -20.35L4.8 -18.3L4.8 -12.55L4.75 -10.45L4.75 -6.75L4.7 -2.75L4.7 0L8.85 0.05L15.6 0.25L22.2 0.4L26 0.45L25.85 -7.3" />
</g>
<g id="PathID_55" transform="matrix(0.352941, 0, 0, 0.352941, 83.95, 93)">
<path style="fill:#FADC14;fill-opacity:1" d="M9.7 1.3Q10.05 0.5 10.7 -1.55L12.2 -6.1L13.65 -10.7L14.55 -13.75Q14.95 -13 16.4 -10.8L19.85 -5.8L23.6 -0.45L24.35 -0.45L28.3 -5.75L32.1 -11.05L34.15 -13.95L35.05 -11.55L36.8 -7.15L38.8 -2.35L40.35 1.3L49.9 -2.55L47.7 -7.05L43.85 -15.25L39.6 -24.2L36.3 -31L35.6 -31L32.1 -25.75L27.9 -19.35L24.9 -14.85L22.95 -17.8L19.9 -22.5L16.55 -27.55L13.85 -31.65L13.1 -31.65L10.85 -26.6L7.7 -19.3L4.45 -11.5L1.8 -5.05L0.45 -1.85L9.7 1.3" />
</g>
<g id="PathID_56" transform="matrix(0.352941, 0, 0, 0.352941, 106.25, 93)">
<path style="fill:#FADC14;fill-opacity:1" d="M19.9 0.7Q25.7 0.65 29.6 -1Q33.5 -2.7 35.8 -5.3Q38.1 -7.9 39.1 -10.8Q40.1 -13.7 40.05 -16.2Q40 -23.4 35.25 -27.35Q30.55 -31.35 22.1 -31.4Q15.25 -31.35 10.75 -28.8Q6.3 -26.25 4.1 -22.3Q1.95 -18.35 1.95 -14.1Q1.9 -10.55 3.8 -7.15Q5.7 -3.8 9.65 -1.55Q13.65 0.65 19.9 0.7M20.4 -6.3Q17.65 -6.3 15.75 -8.4Q13.9 -10.5 13.8 -14.75Q13.85 -18.75 15.8 -21.5Q17.75 -24.25 21.5 -24.4Q24.7 -24.35 26.4 -22.15Q28.15 -20 28.2 -15.9Q28.15 -11.1 26.05 -8.7Q24 -6.3 20.4 -6.3" />
</g>
<g id="PathID_57" transform="matrix(0.352941, 0, 0, 0.352941, 121.1, 93)">
<path style="fill:#FADC14;fill-opacity:1" d="M13.1 0.3L13.1 -2.2L13.05 -6.65L13.05 -11.3L13.05 -14.35L16.55 -11.7L22.85 -7.2L29.6 -2.45Q32.85 -0.25 34.75 0.85L35.5 0.65L35.8 -5.65L36.35 -14.55L36.9 -23.75L37.45 -30.75L27.5 -30.95L27.45 -28.15L27.45 -23.7L27.5 -19.15L27.55 -16.1Q27.1 -16.55 24.65 -18.3L18.75 -22.45Q15.3 -24.9 11.8 -27.25Q8.3 -29.65 5.8 -31.25L4.95 -31L4.6 -25.85L4.15 -18.5L3.7 -10.55L3.3 -3.8L3.1 0L13.1 0.3" />
</g>
<g id="PathID_58" transform="matrix(0.352941, 0, 0, 0.352941, 139.95, 93)">
<path style="fill:#FADC14;fill-opacity:1" d="M20.95 0L20.85 -2.3L20.8 -6.55L20.8 -11.3L20.8 -22.95L22.4 -22.9L25.6 -22.8L28.85 -22.75L30.7 -22.65L30.7 -30.65L27.8 -30.5L23.55 -30.4L19.55 -30.3L17.45 -30.3L13.45 -30.3L11.4 -30.3L7.2 -30.4L2.75 -30.5L-0.15 -30.65L-0.15 -22.65L2.6 -22.75L6.65 -22.85L9.8 -22.95L9.8 -11.95L9.75 -7L9.7 -2.55L9.7 0L20.95 0" />
</g>
<g id="PathID_59" transform="matrix(0.352941, 0, 0, 0.352941, 150.75, 93)">
<path style="fill:#FADC14;fill-opacity:1" d="M16.1 0L16 -2.65L15.9 -6.9L15.85 -10.25L15.85 -11.5L27.1 -12.35L27.1 -9.3L27.05 -6.85L26.95 -2.9L26.85 0L38.3 0L38.2 -2.15L38.1 -6.2L38.05 -10.2L38.05 -12.25L38.05 -16.55L38.05 -19.05L38.15 -23.65L38.2 -28.25L38.3 -30.75L26.85 -30.75Q26.95 -30.15 26.95 -28.15L27.05 -24.2L27.1 -21.75L27.1 -20.15L15.85 -19.3L15.85 -20.85L15.85 -22.6L15.95 -25.75L16.05 -28.95L16.15 -30.75L4.65 -30.75L4.75 -28.4L4.8 -24.15L4.85 -20L4.9 -17.85L4.9 -13.15L4.85 -10.85L4.85 -6.85L4.8 -2.65L4.8 0L16.1 0" />
</g>
<g id="PathID_60" transform="matrix(0.352941, 0, 0, 0.352941, 165.9, 93)">
<path style="fill:#FADC14;fill-opacity:1" d="M25.85 -7.3L22.4 -7.2L18.15 -7.2L15.4 -7.2L15.4 -11.9L17.8 -11.85L21.35 -11.75L23.85 -11.75L23.75 -19Q22.65 -18.85 20.85 -18.75L17.5 -18.6L15.4 -18.55L15.4 -23.85L17.95 -23.9L22.1 -24L25.25 -24.1L25.05 -31.5L21.45 -31.3L15.2 -31.05L8.8 -30.85L4.7 -30.75L4.7 -28.35L4.7 -24.3L4.75 -20.35L4.8 -18.3L4.8 -12.55L4.75 -10.45L4.75 -6.75L4.7 -2.75L4.7 0L8.85 0.05L15.6 0.25L22.2 0.4L26 0.45L25.85 -7.3" />
</g>
<g id="PathID_61" transform="matrix(0.352941, 0, 0, 0.352941, 180.65, 93)">
<path style="fill:#FADC14;fill-opacity:1" d="M15.6 0L15.6 -2L15.55 -5.2L15.55 -7.3L15.55 -10.8L25 -10.7L24.9 -17.85L18.65 -17.55L15.55 -17.45L15.55 -23.75L25.75 -23.95L25.55 -31.35L20.65 -31.2L14.65 -31L8.85 -30.8L4.65 -30.75L4.65 -28.35L4.7 -24.3L4.75 -20.35L4.8 -18.35L4.8 -12.55L4.75 -10.5L4.75 -6.75L4.7 -2.75L4.65 0L15.6 0" />
</g>
<g id="PathID_62" transform="matrix(0.352941, 0, 0, 0.352941, 190.55, 93)">
<path style="fill:#FADC14;fill-opacity:1" d="M4.65 -30.75L4.65 -28.55L4.7 -24.5L4.75 -20.45L4.8 -18.35L4.8 -12.55L4.75 -10.45L4.75 -6.75L4.7 -2.75L4.7 0L9.5 0.05L16.35 0.25L22.75 0.4L26.1 0.45L26.05 -8L22 -7.85L18.1 -7.75L15.75 -7.75L15.75 -15.35L15.85 -21.55L15.95 -27.5L16.05 -30.75L4.65 -30.75" />
</g>
<g id="PathID_63" transform="matrix(0.352941, 0, 0, 0.352941, 199, 93)">
<path style="fill:#FADC14;fill-opacity:1" d="M23.45 0Q23.35 -0.45 23.3 -1.6L23.25 -3.85L23.2 -5.35L23.2 -8.05Q23.25 -11.75 24.6 -14.5Q25.95 -17.25 28.05 -18.85Q29.75 -20.05 31.65 -20.75Q33.55 -21.45 35.1 -21.75L32.2 -31.65Q29.5 -30.95 27.25 -29.7Q25.05 -28.5 23.35 -27Q21.7 -25.5 20.4 -23.65Q19.1 -21.85 18.35 -19.65L18 -19.65Q17.15 -22.15 16 -23.95Q14.85 -25.8 13.55 -27.05Q11.7 -28.7 9.4 -29.8Q7.15 -30.95 4.8 -31.55L1.2 -21.7L3.65 -21Q5 -20.6 6.4 -19.75Q9 -18.1 10.6 -15.1Q12.2 -12.15 12.25 -7.95L12.25 -6.15L12.15 -4.5L12.05 -1.9L11.95 0L23.45 0" />
</g>
<g id="PathID_64" transform="matrix(0.352941, 0, 0, 0.352941, 216.35, 93)">
<path style="fill:#FADC14;fill-opacity:1" d="M20.95 0L20.85 -2.3L20.8 -6.55L20.8 -11.3L20.8 -22.95L22.4 -22.9L25.6 -22.8L28.85 -22.75L30.7 -22.65L30.7 -30.65L27.8 -30.5L23.55 -30.4L19.55 -30.3L17.45 -30.3L13.45 -30.3L11.4 -30.3L7.2 -30.4L2.75 -30.5L-0.15 -30.65L-0.15 -22.65L2.6 -22.75L6.65 -22.85L9.8 -22.95L9.8 -11.95L9.75 -7L9.7 -2.55L9.7 0L20.95 0" />
</g>
<g id="PathID_65" transform="matrix(0.352941, 0, 0, 0.352941, 226.5, 93)">
<path style="fill:#FADC14;fill-opacity:1" d="M19.9 0.7Q25.7 0.65 29.6 -1Q33.5 -2.7 35.8 -5.3Q38.1 -7.9 39.1 -10.8Q40.1 -13.7 40.05 -16.2Q40 -23.4 35.25 -27.35Q30.55 -31.35 22.1 -31.4Q15.25 -31.35 10.75 -28.8Q6.3 -26.25 4.1 -22.3Q1.95 -18.35 1.95 -14.1Q1.9 -10.55 3.8 -7.15Q5.7 -3.8 9.65 -1.55Q13.65 0.65 19.9 0.7M20.4 -6.3Q17.65 -6.3 15.75 -8.4Q13.9 -10.5 13.8 -14.75Q13.85 -18.75 15.8 -21.5Q17.75 -24.25 21.5 -24.4Q24.7 -24.35 26.4 -22.15Q28.15 -20 28.2 -15.9Q28.15 -11.1 26.05 -8.7Q24 -6.3 20.4 -6.3" />
</g>
<g id="PathID_66" transform="matrix(0.352941, 0, 0, 0.352941, 241.35, 93)">
<path style="fill:#FADC14;fill-opacity:1" d="M19.9 0.7Q25.7 0.65 29.6 -1Q33.5 -2.7 35.8 -5.3Q38.1 -7.9 39.1 -10.8Q40.1 -13.7 40.05 -16.2Q40 -23.4 35.25 -27.35Q30.55 -31.35 22.1 -31.4Q15.25 -31.35 10.75 -28.8Q6.3 -26.25 4.1 -22.3Q1.95 -18.35 1.95 -14.1Q1.9 -10.55 3.8 -7.15Q5.7 -3.8 9.65 -1.55Q13.65 0.65 19.9 0.7M20.4 -6.3Q17.65 -6.3 15.75 -8.4Q13.9 -10.5 13.8 -14.75Q13.85 -18.75 15.8 -21.5Q17.75 -24.25 21.5 -24.4Q24.7 -24.35 26.4 -22.15Q28.15 -20 28.2 -15.9Q28.15 -11.1 26.05 -8.7Q24 -6.3 20.4 -6.3" />
</g>
<g id="PathID_67" transform="matrix(0.352941, 0, 0, 0.352941, -47.7, 143)">
<path style="fill:#FADC14;fill-opacity:1" d="M27.65 -7.9L25.65 -7.75L23.15 -7.65Q18.5 -7.7 16 -9.25Q13.5 -10.85 13.45 -13.45Q13.4 -16.5 16.55 -19.05Q19.75 -21.6 26.85 -22.85L24.8 -31.4Q16.8 -29.9 11.65 -26.75Q6.5 -23.65 4 -19.8Q1.55 -16 1.6 -12.3Q1.55 -9.25 3.65 -6.25Q5.75 -3.3 10.4 -1.3Q15.05 0.65 22.6 0.7Q24.25 0.7 25.55 0.6L28.1 0.35L27.65 -7.9" />
</g>
<g id="PathID_68" transform="matrix(0.352941, 0, 0, 0.352941, -37.05, 143)">
<path style="fill:#FADC14;fill-opacity:1" d="M9.15 1.5L10.3 -0.8L11.45 -3.1L12.1 -4.4L25.7 -5.05L26.6 -3.6L28.2 -1.05L29.8 1.45L39.15 -3.7L36.05 -8.1L30.7 -16L24.65 -24.9Q21.65 -29.3 19.45 -32.35L18.5 -32.35Q16.65 -29.75 13.8 -25.3L7.95 -16.1L2.75 -7.7L0 -3.2L9.15 1.5M14.95 -11.05L16.9 -14.9L18.8 -18.55Q19.45 -17.15 20.5 -15.2L22.6 -11.4L14.95 -11.05" />
</g>
<g id="PathID_69" transform="matrix(0.352941, 0, 0, 0.352941, -23.2, 143)">
<path style="fill:#FADC14;fill-opacity:1" d="M13.1 0.3L13.1 -2.2L13.05 -6.65L13.05 -11.3L13.05 -14.35L16.55 -11.7L22.85 -7.2L29.6 -2.45Q32.85 -0.25 34.75 0.85L35.5 0.65L35.8 -5.65L36.35 -14.55L36.9 -23.75L37.45 -30.75L27.5 -30.95L27.45 -28.15L27.45 -23.7L27.5 -19.15L27.55 -16.1Q27.1 -16.55 24.65 -18.3L18.75 -22.45Q15.3 -24.9 11.8 -27.25Q8.3 -29.65 5.8 -31.25L4.95 -31L4.6 -25.85L4.15 -18.5L3.7 -10.55L3.3 -3.8L3.1 0L13.1 0.3" />
</g>
<g id="PathID_70" transform="matrix(0.352941, 0, 0, 0.352941, -4.35, 143)">
<path style="fill:#FADC14;fill-opacity:1" d="M23.45 0Q23.35 -0.45 23.3 -1.6L23.25 -3.85L23.2 -5.35L23.2 -8.05Q23.25 -11.75 24.6 -14.5Q25.95 -17.25 28.05 -18.85Q29.75 -20.05 31.65 -20.75Q33.55 -21.45 35.1 -21.75L32.2 -31.65Q29.5 -30.95 27.25 -29.7Q25.05 -28.5 23.35 -27Q21.7 -25.5 20.4 -23.65Q19.1 -21.85 18.35 -19.65L18 -19.65Q17.15 -22.15 16 -23.95Q14.85 -25.8 13.55 -27.05Q11.7 -28.7 9.4 -29.8Q7.15 -30.95 4.8 -31.55L1.2 -21.7L3.65 -21Q5 -20.6 6.4 -19.75Q9 -18.1 10.6 -15.1Q12.2 -12.15 12.25 -7.95L12.25 -6.15L12.15 -4.5L12.05 -1.9L11.95 0L23.45 0" />
</g>
<g id="PathID_71" transform="matrix(0.352941, 0, 0, 0.352941, 7.65, 143)">
<path style="fill:#FADC14;fill-opacity:1" d="M19.9 0.7Q25.7 0.65 29.6 -1Q33.5 -2.7 35.8 -5.3Q38.1 -7.9 39.1 -10.8Q40.1 -13.7 40.05 -16.2Q40 -23.4 35.25 -27.35Q30.55 -31.35 22.1 -31.4Q15.25 -31.35 10.75 -28.8Q6.3 -26.25 4.1 -22.3Q1.95 -18.35 1.95 -14.1Q1.9 -10.55 3.8 -7.15Q5.7 -3.8 9.65 -1.55Q13.65 0.65 19.9 0.7M20.4 -6.3Q17.65 -6.3 15.75 -8.4Q13.9 -10.5 13.8 -14.75Q13.85 -18.75 15.8 -21.5Q17.75 -24.25 21.5 -24.4Q24.7 -24.35 26.4 -22.15Q28.15 -20 28.2 -15.9Q28.15 -11.1 26.05 -8.7Q24 -6.3 20.4 -6.3" />
</g>
<g id="PathID_72" transform="matrix(0.352941, 0, 0, 0.352941, 22.5, 143)">
<path style="fill:#FADC14;fill-opacity:1" d="M14.3 -22.95L14.35 -27.75Q14.45 -29.65 14.6 -30.45L3.2 -30.45L3.15 -28.75L3.15 -26.25L3.15 -23.9L3.15 -21.55Q3.1 -16.4 3.4 -13.25Q3.75 -10.1 4.4 -8.15Q5.1 -6.25 6.25 -4.75Q8 -2.3 10.3 -1.1Q12.65 0.05 15.05 0.4Q17.45 0.75 19.4 0.7Q23.3 0.7 26.6 -0.5Q29.95 -1.75 32.1 -4.15Q34.6 -7.1 35.4 -11.2Q36.2 -15.3 36.1 -21.45L36.1 -23.5L36.05 -28.25L36.05 -31.15L24.85 -31.15L25 -27.9L25.15 -23.6L25.15 -21.95Q25.15 -17.1 25.05 -14.55Q25 -12 24.7 -10.75Q24.45 -9.5 23.8 -8.7Q23.15 -7.8 22.2 -7.3Q21.25 -6.85 20 -6.8Q18.95 -6.8 18.05 -7.15Q17.15 -7.5 16.4 -8.25Q15.1 -9.6 14.7 -12.25Q14.3 -14.95 14.3 -20.05L14.3 -22.95" />
</g>
<g id="PathID_73" transform="matrix(0.352941, 0, 0, 0.352941, 40.9, 143)">
<path style="fill:#FADC14;fill-opacity:1" d="M15.6 0L15.6 -2L15.55 -5.2L15.55 -7.3L15.55 -10.8L25 -10.7L24.9 -17.85L18.65 -17.55L15.55 -17.45L15.55 -23.75L25.75 -23.95L25.55 -31.35L20.65 -31.2L14.65 -31L8.85 -30.8L4.65 -30.75L4.65 -28.35L4.7 -24.3L4.75 -20.35L4.8 -18.35L4.8 -12.55L4.75 -10.5L4.75 -6.75L4.7 -2.75L4.65 0L15.6 0" />
</g>
<g id="PathID_74" transform="matrix(0.352941, 0, 0, 0.352941, 50.8, 143)">
<path style="fill:#FADC14;fill-opacity:1" d="M15.65 -17.75L15.7 -23.25L15.8 -28.2L15.9 -30.75L4.6 -30.75L4.6 -28.4L4.6 -24.15L4.65 -20L4.7 -17.8L4.7 -13.15L4.65 -10.85L4.65 -6.85L4.6 -2.65L4.6 0L15.9 0L15.8 -2.85L15.7 -7.95L15.65 -13.1L15.65 -17.75" />
</g>
<g id="PathID_75" transform="matrix(0.352941, 0, 0, 0.352941, 58, 143)">
<path style="fill:#FADC14;fill-opacity:1" d="M13.1 0.3L13.1 -2.2L13.05 -6.65L13.05 -11.3L13.05 -14.35L16.55 -11.7L22.85 -7.2L29.6 -2.45Q32.85 -0.25 34.75 0.85L35.5 0.65L35.8 -5.65L36.35 -14.55L36.9 -23.75L37.45 -30.75L27.5 -30.95L27.45 -28.15L27.45 -23.7L27.5 -19.15L27.55 -16.1Q27.1 -16.55 24.65 -18.3L18.75 -22.45Q15.3 -24.9 11.8 -27.25Q8.3 -29.65 5.8 -31.25L4.95 -31L4.6 -25.85L4.15 -18.5L3.7 -10.55L3.3 -3.8L3.1 0L13.1 0.3" />
</g>
<g id="PathID_76" transform="matrix(0.352941, 0, 0, 0.352941, 72.35, 143)">
<path style="fill:#FADC14;fill-opacity:1" d="M4.8 -13.7L4.75 -11.3L4.7 -7.05L4.6 -2.6Q4.6 -0.6 4.5 0.2Q10.3 0.4 16 -0.6Q21.7 -1.65 26.4 -3.95Q31.1 -6.25 33.95 -10Q36.8 -13.75 36.85 -19Q36.95 -20.8 35.85 -23.05Q34.75 -25.35 31.6 -27.3Q28.5 -29.25 22.45 -30.05Q19.35 -30.45 15.15 -30.6Q11 -30.8 4.55 -30.75Q4.65 -30.25 4.65 -28.55L4.7 -24.8L4.75 -21.1L4.8 -19.05L4.8 -13.7M15.55 -23.65Q18.05 -23.65 20.25 -23.2Q22.5 -22.8 23.9 -21.45Q25.3 -20.1 25.35 -17.45Q25.25 -14.45 23.7 -12.4Q22.2 -10.35 19.95 -9.2Q17.75 -8.1 15.55 -7.85L15.55 -23.65" />
</g>
<g id="PathID_77" transform="matrix(0.352941, 0, 0, 0.352941, 90.55, 143)">
<path style="fill:#FADC14;fill-opacity:1" d="M20.95 0L20.85 -2.3L20.8 -6.55L20.8 -11.3L20.8 -22.95L22.4 -22.9L25.6 -22.8L28.85 -22.75L30.7 -22.65L30.7 -30.65L27.8 -30.5L23.55 -30.4L19.55 -30.3L17.45 -30.3L13.45 -30.3L11.4 -30.3L7.2 -30.4L2.75 -30.5L-0.15 -30.65L-0.15 -22.65L2.6 -22.75L6.65 -22.85L9.8 -22.95L9.8 -11.95L9.75 -7L9.7 -2.55L9.7 0L20.95 0" />
</g>
<g id="PathID_78" transform="matrix(0.352941, 0, 0, 0.352941, 101.35, 143)">
<path style="fill:#FADC14;fill-opacity:1" d="M16.1 0L16 -2.65L15.9 -6.9L15.85 -10.25L15.85 -11.5L27.1 -12.35L27.1 -9.3L27.05 -6.85L26.95 -2.9L26.85 0L38.3 0L38.2 -2.15L38.1 -6.2L38.05 -10.2L38.05 -12.25L38.05 -16.55L38.05 -19.05L38.15 -23.65L38.2 -28.25L38.3 -30.75L26.85 -30.75Q26.95 -30.15 26.95 -28.15L27.05 -24.2L27.1 -21.75L27.1 -20.15L15.85 -19.3L15.85 -20.85L15.85 -22.6L15.95 -25.75L16.05 -28.95L16.15 -30.75L4.65 -30.75L4.75 -28.4L4.8 -24.15L4.85 -20L4.9 -17.85L4.9 -13.15L4.85 -10.85L4.85 -6.85L4.8 -2.65L4.8 0L16.1 0" />
</g>
<g id="PathID_79" transform="matrix(0.352941, 0, 0, 0.352941, 116.5, 143)">
<path style="fill:#FADC14;fill-opacity:1" d="M25.85 -7.3L22.4 -7.2L18.15 -7.2L15.4 -7.2L15.4 -11.9L17.8 -11.85L21.35 -11.75L23.85 -11.75L23.75 -19Q22.65 -18.85 20.85 -18.75L17.5 -18.6L15.4 -18.55L15.4 -23.85L17.95 -23.9L22.1 -24L25.25 -24.1L25.05 -31.5L21.45 -31.3L15.2 -31.05L8.8 -30.85L4.7 -30.75L4.7 -28.35L4.7 -24.3L4.75 -20.35L4.8 -18.3L4.8 -12.55L4.75 -10.45L4.75 -6.75L4.7 -2.75L4.7 0L8.85 0.05L15.6 0.25L22.2 0.4L26 0.45L25.85 -7.3" />
</g>
<g id="PathID_80" transform="matrix(0.352941, 0, 0, 0.352941, 131.25, 143)">
<path style="fill:#FADC14;fill-opacity:1" d="M20.95 0L20.85 -2.3L20.8 -6.55L20.8 -11.3L20.8 -22.95L22.4 -22.9L25.6 -22.8L28.85 -22.75L30.7 -22.65L30.7 -30.65L27.8 -30.5L23.55 -30.4L19.55 -30.3L17.45 -30.3L13.45 -30.3L11.4 -30.3L7.2 -30.4L2.75 -30.5L-0.15 -30.65L-0.15 -22.65L2.6 -22.75L6.65 -22.85L9.8 -22.95L9.8 -11.95L9.75 -7L9.7 -2.55L9.7 0L20.95 0" />
</g>
<g id="PathID_81" transform="matrix(0.352941, 0, 0, 0.352941, 142.05, 143)">
<path style="fill:#FADC14;fill-opacity:1" d="M15.45 -24.55Q18.9 -24.45 20.2 -23.35Q21.5 -22.3 21.45 -20.75Q21.35 -18.35 19.75 -16.7Q18.2 -15.1 16.3 -14.2L18.35 -11.2L21.75 -6.25L25.15 -1.35L27.15 1.5L36.2 -5.1L33.55 -7.7L29.6 -11.45L26.85 -14.15Q29.65 -15.9 31.15 -18Q32.65 -20.15 32.65 -22.85Q32.65 -25.85 29.95 -27.7Q27.25 -29.6 22.15 -30.25Q18.75 -30.65 14.2 -30.7Q9.65 -30.8 4.65 -30.75L4.75 -28.8L4.8 -25.15L4.85 -21.45L4.9 -19.2L4.9 -12.2L4.9 -10L4.85 -6.1L4.8 -2.2L4.75 0L15.7 0L15.6 -2.1L15.5 -6.25L15.45 -10.55L15.45 -13.25L15.45 -24.55" />
</g>
<g id="PathID_82" transform="matrix(0.352941, 0, 0, 0.352941, 154.75, 143)">
<path style="fill:#FADC14;fill-opacity:1" d="M25.85 -7.3L22.4 -7.2L18.15 -7.2L15.4 -7.2L15.4 -11.9L17.8 -11.85L21.35 -11.75L23.85 -11.75L23.75 -19Q22.65 -18.85 20.85 -18.75L17.5 -18.6L15.4 -18.55L15.4 -23.85L17.95 -23.9L22.1 -24L25.25 -24.1L25.05 -31.5L21.45 -31.3L15.2 -31.05L8.8 -30.85L4.7 -30.75L4.7 -28.35L4.7 -24.3L4.75 -20.35L4.8 -18.3L4.8 -12.55L4.75 -10.45L4.75 -6.75L4.7 -2.75L4.7 0L8.85 0.05L15.6 0.25L22.2 0.4L26 0.45L25.85 -7.3" />
</g>
<g id="PathID_83" transform="matrix(0.352941, 0, 0, 0.352941, 165, 143)">
<path style="fill:#FADC14;fill-opacity:1" d="M9.15 1.5L10.3 -0.8L11.45 -3.1L12.1 -4.4L25.7 -5.05L26.6 -3.6L28.2 -1.05L29.8 1.45L39.15 -3.7L36.05 -8.1L30.7 -16L24.65 -24.9Q21.65 -29.3 19.45 -32.35L18.5 -32.35Q16.65 -29.75 13.8 -25.3L7.95 -16.1L2.75 -7.7L0 -3.2L9.15 1.5M14.95 -11.05L16.9 -14.9L18.8 -18.55Q19.45 -17.15 20.5 -15.2L22.6 -11.4L14.95 -11.05" />
</g>
<g id="PathID_84" transform="matrix(0.352941, 0, 0, 0.352941, 178.85, 143)">
<path style="fill:#FADC14;fill-opacity:1" d="M3.95 0.85Q11.2 0.25 15.75 -1.65Q20.35 -3.6 22.5 -6.2Q24.65 -8.85 24.6 -11.55Q24.55 -13.7 23.35 -15.1Q22.15 -16.5 20.55 -17.35Q18.95 -18.2 17.65 -18.7Q15.35 -19.55 14.15 -20.15Q12.95 -20.8 12.9 -21.6Q12.9 -22.95 15.3 -23.4Q17.7 -23.85 22.45 -23.85L21.25 -31.65Q15.05 -31.3 10.6 -29.65Q6.2 -28 3.8 -25.55Q1.45 -23.15 1.45 -20.4Q1.5 -18.4 2.55 -16.95Q3.6 -15.55 5.15 -14.55Q6.75 -13.6 8.25 -12.95Q11.1 -11.7 12.1 -11Q13.1 -10.35 13.05 -9.65Q13 -8.65 11.5 -8Q10 -7.35 7.65 -7.05Q5.35 -6.8 2.8 -6.85L3.95 0.85" />
</g>
<g id="PathID_85" transform="matrix(0.352941, 0, 0, 0.352941, 188.05, 143)">
<path style="fill:#FADC14;fill-opacity:1" d="M14.3 -22.95L14.35 -27.75Q14.45 -29.65 14.6 -30.45L3.2 -30.45L3.15 -28.75L3.15 -26.25L3.15 -23.9L3.15 -21.55Q3.1 -16.4 3.4 -13.25Q3.75 -10.1 4.4 -8.15Q5.1 -6.25 6.25 -4.75Q8 -2.3 10.3 -1.1Q12.65 0.05 15.05 0.4Q17.45 0.75 19.4 0.7Q23.3 0.7 26.6 -0.5Q29.95 -1.75 32.1 -4.15Q34.6 -7.1 35.4 -11.2Q36.2 -15.3 36.1 -21.45L36.1 -23.5L36.05 -28.25L36.05 -31.15L24.85 -31.15L25 -27.9L25.15 -23.6L25.15 -21.95Q25.15 -17.1 25.05 -14.55Q25 -12 24.7 -10.75Q24.45 -9.5 23.8 -8.7Q23.15 -7.8 22.2 -7.3Q21.25 -6.85 20 -6.8Q18.95 -6.8 18.05 -7.15Q17.15 -7.5 16.4 -8.25Q15.1 -9.6 14.7 -12.25Q14.3 -14.95 14.3 -20.05L14.3 -22.95" />
</g>
<g id="PathID_86" transform="matrix(0.352941, 0, 0, 0.352941, 201.95, 143)">
<path style="fill:#FADC14;fill-opacity:1" d="M15.45 -24.55Q18.9 -24.45 20.2 -23.35Q21.5 -22.3 21.45 -20.75Q21.35 -18.35 19.75 -16.7Q18.2 -15.1 16.3 -14.2L18.35 -11.2L21.75 -6.25L25.15 -1.35L27.15 1.5L36.2 -5.1L33.55 -7.7L29.6 -11.45L26.85 -14.15Q29.65 -15.9 31.15 -18Q32.65 -20.15 32.65 -22.85Q32.65 -25.85 29.95 -27.7Q27.25 -29.6 22.15 -30.25Q18.75 -30.65 14.2 -30.7Q9.65 -30.8 4.65 -30.75L4.75 -28.8L4.8 -25.15L4.85 -21.45L4.9 -19.2L4.9 -12.2L4.9 -10L4.85 -6.1L4.8 -2.2L4.75 0L15.7 0L15.6 -2.1L15.5 -6.25L15.45 -10.55L15.45 -13.25L15.45 -24.55" />
</g>
<g id="PathID_87" transform="matrix(0.352941, 0, 0, 0.352941, 214.65, 143)">
<path style="fill:#FADC14;fill-opacity:1" d="M25.85 -7.3L22.4 -7.2L18.15 -7.2L15.4 -7.2L15.4 -11.9L17.8 -11.85L21.35 -11.75L23.85 -11.75L23.75 -19Q22.65 -18.85 20.85 -18.75L17.5 -18.6L15.4 -18.55L15.4 -23.85L17.95 -23.9L22.1 -24L25.25 -24.1L25.05 -31.5L21.45 -31.3L15.2 -31.05L8.8 -30.85L4.7 -30.75L4.7 -28.35L4.7 -24.3L4.75 -20.35L4.8 -18.3L4.8 -12.55L4.75 -10.45L4.75 -6.75L4.7 -2.75L4.7 0L8.85 0.05L15.6 0.25L22.2 0.4L26 0.45L25.85 -7.3" />
</g>
<g id="PathID_88" transform="matrix(0.352941, 0, 0, 0.352941, 34.3, 169)">
<path style="fill:#FADC14;fill-opacity:1" d="M31.4 -9.9L31.4 -11.75L31.45 -14.2L21 -14.2L21 -12.1L21.1 -10.25L21.1 -6.95Q19.35 -6.9 17.55 -7.4Q15.8 -7.95 14.55 -9.2Q13.3 -10.5 13.25 -12.65Q13.35 -15.6 15.7 -17.65Q18.05 -19.75 21.45 -20.95Q24.9 -22.2 28.25 -22.55L26.1 -31.5Q16.5 -29.65 11.15 -26.1Q5.8 -22.6 3.65 -18.75Q1.5 -14.95 1.6 -12.15Q1.55 -8.7 3.55 -5.8Q5.6 -2.9 9.9 -1.1Q14.2 0.65 21.1 0.7Q24.7 0.7 27.55 0.3Q30.4 -0.05 31.5 -0.3L31.45 -2L31.4 -4.5L31.4 -6.7L31.4 -9.9" />
</g>
<g id="PathID_89" transform="matrix(0.352941, 0, 0, 0.352941, 46.55, 169)">
<path style="fill:#FADC14;fill-opacity:1" d="M19.9 0.7Q25.7 0.65 29.6 -1Q33.5 -2.7 35.8 -5.3Q38.1 -7.9 39.1 -10.8Q40.1 -13.7 40.05 -16.2Q40 -23.4 35.25 -27.35Q30.55 -31.35 22.1 -31.4Q15.25 -31.35 10.75 -28.8Q6.3 -26.25 4.1 -22.3Q1.95 -18.35 1.95 -14.1Q1.9 -10.55 3.8 -7.15Q5.7 -3.8 9.65 -1.55Q13.65 0.65 19.9 0.7M20.4 -6.3Q17.65 -6.3 15.75 -8.4Q13.9 -10.5 13.8 -14.75Q13.85 -18.75 15.8 -21.5Q17.75 -24.25 21.5 -24.4Q24.7 -24.35 26.4 -22.15Q28.15 -20 28.2 -15.9Q28.15 -11.1 26.05 -8.7Q24 -6.3 20.4 -6.3" />
</g>
<g id="PathID_90" transform="matrix(0.352941, 0, 0, 0.352941, 61.4, 169)">
<path style="fill:#FADC14;fill-opacity:1" d="M19.9 0.7Q25.7 0.65 29.6 -1Q33.5 -2.7 35.8 -5.3Q38.1 -7.9 39.1 -10.8Q40.1 -13.7 40.05 -16.2Q40 -23.4 35.25 -27.35Q30.55 -31.35 22.1 -31.4Q15.25 -31.35 10.75 -28.8Q6.3 -26.25 4.1 -22.3Q1.95 -18.35 1.95 -14.1Q1.9 -10.55 3.8 -7.15Q5.7 -3.8 9.65 -1.55Q13.65 0.65 19.9 0.7M20.4 -6.3Q17.65 -6.3 15.75 -8.4Q13.9 -10.5 13.8 -14.75Q13.85 -18.75 15.8 -21.5Q17.75 -24.25 21.5 -24.4Q24.7 -24.35 26.4 -22.15Q28.15 -20 28.2 -15.9Q28.15 -11.1 26.05 -8.7Q24 -6.3 20.4 -6.3" />
</g>
<g id="PathID_91" transform="matrix(0.352941, 0, 0, 0.352941, 76.15, 169)">
<path style="fill:#FADC14;fill-opacity:1" d="M4.8 -13.7L4.75 -11.3L4.7 -7.05L4.6 -2.6Q4.6 -0.6 4.5 0.2Q10.3 0.4 16 -0.6Q21.7 -1.65 26.4 -3.95Q31.1 -6.25 33.95 -10Q36.8 -13.75 36.85 -19Q36.95 -20.8 35.85 -23.05Q34.75 -25.35 31.6 -27.3Q28.5 -29.25 22.45 -30.05Q19.35 -30.45 15.15 -30.6Q11 -30.8 4.55 -30.75Q4.65 -30.25 4.65 -28.55L4.7 -24.8L4.75 -21.1L4.8 -19.05L4.8 -13.7M15.55 -23.65Q18.05 -23.65 20.25 -23.2Q22.5 -22.8 23.9 -21.45Q25.3 -20.1 25.35 -17.45Q25.25 -14.45 23.7 -12.4Q22.2 -10.35 19.95 -9.2Q17.75 -8.1 15.55 -7.85L15.55 -23.65" />
</g>
<g id="PathID_92" transform="matrix(0.352941, 0, 0, 0.352941, 94.35, 169)">
<path style="fill:#FADC14;fill-opacity:1" d="M4.65 -30.75L4.65 -28.55L4.7 -24.5L4.75 -20.45L4.8 -18.35L4.8 -12.55L4.75 -10.45L4.75 -6.75L4.7 -2.75L4.7 0L9.5 0.05L16.35 0.25L22.75 0.4L26.1 0.45L26.05 -8L22 -7.85L18.1 -7.75L15.75 -7.75L15.75 -15.35L15.85 -21.55L15.95 -27.5L16.05 -30.75L4.65 -30.75" />
</g>
<g id="PathID_93" transform="matrix(0.352941, 0, 0, 0.352941, 103.85, 169)">
<path style="fill:#FADC14;fill-opacity:1" d="M14.3 -22.95L14.35 -27.75Q14.45 -29.65 14.6 -30.45L3.2 -30.45L3.15 -28.75L3.15 -26.25L3.15 -23.9L3.15 -21.55Q3.1 -16.4 3.4 -13.25Q3.75 -10.1 4.4 -8.15Q5.1 -6.25 6.25 -4.75Q8 -2.3 10.3 -1.1Q12.65 0.05 15.05 0.4Q17.45 0.75 19.4 0.7Q23.3 0.7 26.6 -0.5Q29.95 -1.75 32.1 -4.15Q34.6 -7.1 35.4 -11.2Q36.2 -15.3 36.1 -21.45L36.1 -23.5L36.05 -28.25L36.05 -31.15L24.85 -31.15L25 -27.9L25.15 -23.6L25.15 -21.95Q25.15 -17.1 25.05 -14.55Q25 -12 24.7 -10.75Q24.45 -9.5 23.8 -8.7Q23.15 -7.8 22.2 -7.3Q21.25 -6.85 20 -6.8Q18.95 -6.8 18.05 -7.15Q17.15 -7.5 16.4 -8.25Q15.1 -9.6 14.7 -12.25Q14.3 -14.95 14.3 -20.05L14.3 -22.95" />
</g>
<g id="PathID_94" transform="matrix(0.352941, 0, 0, 0.352941, 117.75, 169)">
<path style="fill:#FADC14;fill-opacity:1" d="M27.65 -7.9L25.65 -7.75L23.15 -7.65Q18.5 -7.7 16 -9.25Q13.5 -10.85 13.45 -13.45Q13.4 -16.5 16.55 -19.05Q19.75 -21.6 26.85 -22.85L24.8 -31.4Q16.8 -29.9 11.65 -26.75Q6.5 -23.65 4 -19.8Q1.55 -16 1.6 -12.3Q1.55 -9.25 3.65 -6.25Q5.75 -3.3 10.4 -1.3Q15.05 0.65 22.6 0.7Q24.25 0.7 25.55 0.6L28.1 0.35L27.65 -7.9" />
</g>
<g id="PathID_95" transform="matrix(0.352941, 0, 0, 0.352941, 128.4, 169)">
<path style="fill:#FADC14;fill-opacity:1" d="M16.05 0.45L15.95 -1.45L15.85 -5.15L15.75 -9.35L15.75 -12.7L15.75 -13.5L15.85 -13.5L18.55 -9.85L22.15 -5.15L25.45 -0.9Q26.85 0.9 27.2 1.25L36 -6.05L33 -9L29 -12.85L26.1 -15.7L29.25 -18.75L32.75 -22.15L35.4 -24.75L27.6 -31.6L25.65 -29.3L22.2 -25.15L18.5 -20.75L15.85 -17.55L15.75 -17.55L15.75 -18.85L15.85 -23.55L15.95 -28.5L16.05 -31.15L4.65 -31.15L4.65 -28.05L4.75 -22.6L4.8 -17.65L4.8 -13.05L4.75 -7.6L4.65 -2.5L4.65 0.45L16.05 0.45" />
</g>
<g id="PathID_96" transform="matrix(0.352941, 0, 0, 0.352941, -31.7, 219)">
<path style="fill:#FADC14;fill-opacity:1" d="M27.65 -7.9L25.65 -7.75L23.15 -7.65Q18.5 -7.7 16 -9.25Q13.5 -10.85 13.45 -13.45Q13.4 -16.5 16.55 -19.05Q19.75 -21.6 26.85 -22.85L24.8 -31.4Q16.8 -29.9 11.65 -26.75Q6.5 -23.65 4 -19.8Q1.55 -16 1.6 -12.3Q1.55 -9.25 3.65 -6.25Q5.75 -3.3 10.4 -1.3Q15.05 0.65 22.6 0.7Q24.25 0.7 25.55 0.6L28.1 0.35L27.65 -7.9" />
</g>
<g id="PathID_97" transform="matrix(0.352941, 0, 0, 0.352941, -21.05, 219)">
<path style="fill:#FADC14;fill-opacity:1" d="M4.65 -30.75L4.65 -28.55L4.7 -24.5L4.75 -20.45L4.8 -18.35L4.8 -12.55L4.75 -10.45L4.75 -6.75L4.7 -2.75L4.7 0L9.5 0.05L16.35 0.25L22.75 0.4L26.1 0.45L26.05 -8L22 -7.85L18.1 -7.75L15.75 -7.75L15.75 -15.35L15.85 -21.55L15.95 -27.5L16.05 -30.75L4.65 -30.75" />
</g>
<g id="PathID_98" transform="matrix(0.352941, 0, 0, 0.352941, -11.45, 219)">
<path style="fill:#FADC14;fill-opacity:1" d="M15.65 -17.75L15.7 -23.25L15.8 -28.2L15.9 -30.75L4.6 -30.75L4.6 -28.4L4.6 -24.15L4.65 -20L4.7 -17.8L4.7 -13.15L4.65 -10.85L4.65 -6.85L4.6 -2.65L4.6 0L15.9 0L15.8 -2.85L15.7 -7.95L15.65 -13.1L15.65 -17.75" />
</g>
<g id="PathID_99" transform="matrix(0.352941, 0, 0, 0.352941, -4.35, 219)">
<path style="fill:#FADC14;fill-opacity:1" d="M27.65 -7.9L25.65 -7.75L23.15 -7.65Q18.5 -7.7 16 -9.25Q13.5 -10.85 13.45 -13.45Q13.4 -16.5 16.55 -19.05Q19.75 -21.6 26.85 -22.85L24.8 -31.4Q16.8 -29.9 11.65 -26.75Q6.5 -23.65 4 -19.8Q1.55 -16 1.6 -12.3Q1.55 -9.25 3.65 -6.25Q5.75 -3.3 10.4 -1.3Q15.05 0.65 22.6 0.7Q24.25 0.7 25.55 0.6L28.1 0.35L27.65 -7.9" />
</g>
<g id="PathID_100" transform="matrix(0.352941, 0, 0, 0.352941, 6.3, 219)">
<path style="fill:#FADC14;fill-opacity:1" d="M16.05 0.45L15.95 -1.45L15.85 -5.15L15.75 -9.35L15.75 -12.7L15.75 -13.5L15.85 -13.5L18.55 -9.85L22.15 -5.15L25.45 -0.9Q26.85 0.9 27.2 1.25L36 -6.05L33 -9L29 -12.85L26.1 -15.7L29.25 -18.75L32.75 -22.15L35.4 -24.75L27.6 -31.6L25.65 -29.3L22.2 -25.15L18.5 -20.75L15.85 -17.55L15.75 -17.55L15.75 -18.85L15.85 -23.55L15.95 -28.5L16.05 -31.15L4.65 -31.15L4.65 -28.05L4.75 -22.6L4.8 -17.65L4.8 -13.05L4.75 -7.6L4.65 -2.5L4.65 0.45L16.05 0.45" />
</g>
<g id="PathID_101" transform="matrix(0.352941, 0, 0, 0.352941, 23.9, 219)">
<path style="fill:#FADC14;fill-opacity:1" d="M20.95 0L20.85 -2.3L20.8 -6.55L20.8 -11.3L20.8 -22.95L22.4 -22.9L25.6 -22.8L28.85 -22.75L30.7 -22.65L30.7 -30.65L27.8 -30.5L23.55 -30.4L19.55 -30.3L17.45 -30.3L13.45 -30.3L11.4 -30.3L7.2 -30.4L2.75 -30.5L-0.15 -30.65L-0.15 -22.65L2.6 -22.75L6.65 -22.85L9.8 -22.95L9.8 -11.95L9.75 -7L9.7 -2.55L9.7 0L20.95 0" />
</g>
<g id="PathID_102" transform="matrix(0.352941, 0, 0, 0.352941, 34.05, 219)">
<path style="fill:#FADC14;fill-opacity:1" d="M19.9 0.7Q25.7 0.65 29.6 -1Q33.5 -2.7 35.8 -5.3Q38.1 -7.9 39.1 -10.8Q40.1 -13.7 40.05 -16.2Q40 -23.4 35.25 -27.35Q30.55 -31.35 22.1 -31.4Q15.25 -31.35 10.75 -28.8Q6.3 -26.25 4.1 -22.3Q1.95 -18.35 1.95 -14.1Q1.9 -10.55 3.8 -7.15Q5.7 -3.8 9.65 -1.55Q13.65 0.65 19.9 0.7M20.4 -6.3Q17.65 -6.3 15.75 -8.4Q13.9 -10.5 13.8 -14.75Q13.85 -18.75 15.8 -21.5Q17.75 -24.25 21.5 -24.4Q24.7 -24.35 26.4 -22.15Q28.15 -20 28.2 -15.9Q28.15 -11.1 26.05 -8.7Q24 -6.3 20.4 -6.3" />
</g>
<g id="PathID_103" transform="matrix(0.352941, 0, 0, 0.352941, 53.4, 219)">
<path style="fill:#FADC14;fill-opacity:1" d="M3.95 0.85Q11.2 0.25 15.75 -1.65Q20.35 -3.6 22.5 -6.2Q24.65 -8.85 24.6 -11.55Q24.55 -13.7 23.35 -15.1Q22.15 -16.5 20.55 -17.35Q18.95 -18.2 17.65 -18.7Q15.35 -19.55 14.15 -20.15Q12.95 -20.8 12.9 -21.6Q12.9 -22.95 15.3 -23.4Q17.7 -23.85 22.45 -23.85L21.25 -31.65Q15.05 -31.3 10.6 -29.65Q6.2 -28 3.8 -25.55Q1.45 -23.15 1.45 -20.4Q1.5 -18.4 2.55 -16.95Q3.6 -15.55 5.15 -14.55Q6.75 -13.6 8.25 -12.95Q11.1 -11.7 12.1 -11Q13.1 -10.35 13.05 -9.65Q13 -8.65 11.5 -8Q10 -7.35 7.65 -7.05Q5.35 -6.8 2.8 -6.85L3.95 0.85" />
</g>
<g id="PathID_104" transform="matrix(0.352941, 0, 0, 0.352941, 62.6, 219)">
<path style="fill:#FADC14;fill-opacity:1" d="M20.95 0L20.85 -2.3L20.8 -6.55L20.8 -11.3L20.8 -22.95L22.4 -22.9L25.6 -22.8L28.85 -22.75L30.7 -22.65L30.7 -30.65L27.8 -30.5L23.55 -30.4L19.55 -30.3L17.45 -30.3L13.45 -30.3L11.4 -30.3L7.2 -30.4L2.75 -30.5L-0.15 -30.65L-0.15 -22.65L2.6 -22.75L6.65 -22.85L9.8 -22.95L9.8 -11.95L9.75 -7L9.7 -2.55L9.7 0L20.95 0" />
</g>
<g id="PathID_105" transform="matrix(0.352941, 0, 0, 0.352941, 72.6, 219)">
<path style="fill:#FADC14;fill-opacity:1" d="M9.15 1.5L10.3 -0.8L11.45 -3.1L12.1 -4.4L25.7 -5.05L26.6 -3.6L28.2 -1.05L29.8 1.45L39.15 -3.7L36.05 -8.1L30.7 -16L24.65 -24.9Q21.65 -29.3 19.45 -32.35L18.5 -32.35Q16.65 -29.75 13.8 -25.3L7.95 -16.1L2.75 -7.7L0 -3.2L9.15 1.5M14.95 -11.05L16.9 -14.9L18.8 -18.55Q19.45 -17.15 20.5 -15.2L22.6 -11.4L14.95 -11.05" />
</g>
<g id="PathID_106" transform="matrix(0.352941, 0, 0, 0.352941, 86.45, 219)">
<path style="fill:#FADC14;fill-opacity:1" d="M15.45 -24.55Q18.9 -24.45 20.2 -23.35Q21.5 -22.3 21.45 -20.75Q21.35 -18.35 19.75 -16.7Q18.2 -15.1 16.3 -14.2L18.35 -11.2L21.75 -6.25L25.15 -1.35L27.15 1.5L36.2 -5.1L33.55 -7.7L29.6 -11.45L26.85 -14.15Q29.65 -15.9 31.15 -18Q32.65 -20.15 32.65 -22.85Q32.65 -25.85 29.95 -27.7Q27.25 -29.6 22.15 -30.25Q18.75 -30.65 14.2 -30.7Q9.65 -30.8 4.65 -30.75L4.75 -28.8L4.8 -25.15L4.85 -21.45L4.9 -19.2L4.9 -12.2L4.9 -10L4.85 -6.1L4.8 -2.2L4.75 0L15.7 0L15.6 -2.1L15.5 -6.25L15.45 -10.55L15.45 -13.25L15.45 -24.55" />
</g>
<g id="PathID_107" transform="matrix(0.352941, 0, 0, 0.352941, 99.15, 219)">
<path style="fill:#FADC14;fill-opacity:1" d="M20.95 0L20.85 -2.3L20.8 -6.55L20.8 -11.3L20.8 -22.95L22.4 -22.9L25.6 -22.8L28.85 -22.75L30.7 -22.65L30.7 -30.65L27.8 -30.5L23.55 -30.4L19.55 -30.3L17.45 -30.3L13.45 -30.3L11.4 -30.3L7.2 -30.4L2.75 -30.5L-0.15 -30.65L-0.15 -22.65L2.6 -22.75L6.65 -22.85L9.8 -22.95L9.8 -11.95L9.75 -7L9.7 -2.55L9.7 0L20.95 0" />
</g>
<g id="PathID_108" transform="matrix(0.352941, 0, 0, 0.352941, 114.45, 219)">
<path style="fill:#FADC14;fill-opacity:1" d="M20.95 0L20.85 -2.3L20.8 -6.55L20.8 -11.3L20.8 -22.95L22.4 -22.9L25.6 -22.8L28.85 -22.75L30.7 -22.65L30.7 -30.65L27.8 -30.5L23.55 -30.4L19.55 -30.3L17.45 -30.3L13.45 -30.3L11.4 -30.3L7.2 -30.4L2.75 -30.5L-0.15 -30.65L-0.15 -22.65L2.6 -22.75L6.65 -22.85L9.8 -22.95L9.8 -11.95L9.75 -7L9.7 -2.55L9.7 0L20.95 0" />
</g>
<g id="PathID_109" transform="matrix(0.352941, 0, 0, 0.352941, 125.25, 219)">
<path style="fill:#FADC14;fill-opacity:1" d="M16.1 0L16 -2.65L15.9 -6.9L15.85 -10.25L15.85 -11.5L27.1 -12.35L27.1 -9.3L27.05 -6.85L26.95 -2.9L26.85 0L38.3 0L38.2 -2.15L38.1 -6.2L38.05 -10.2L38.05 -12.25L38.05 -16.55L38.05 -19.05L38.15 -23.65L38.2 -28.25L38.3 -30.75L26.85 -30.75Q26.95 -30.15 26.95 -28.15L27.05 -24.2L27.1 -21.75L27.1 -20.15L15.85 -19.3L15.85 -20.85L15.85 -22.6L15.95 -25.75L16.05 -28.95L16.15 -30.75L4.65 -30.75L4.75 -28.4L4.8 -24.15L4.85 -20L4.9 -17.85L4.9 -13.15L4.85 -10.85L4.85 -6.85L4.8 -2.65L4.8 0L16.1 0" />
</g>
<g id="PathID_110" transform="matrix(0.352941, 0, 0, 0.352941, 140.4, 219)">
<path style="fill:#FADC14;fill-opacity:1" d="M25.85 -7.3L22.4 -7.2L18.15 -7.2L15.4 -7.2L15.4 -11.9L17.8 -11.85L21.35 -11.75L23.85 -11.75L23.75 -19Q22.65 -18.85 20.85 -18.75L17.5 -18.6L15.4 -18.55L15.4 -23.85L17.95 -23.9L22.1 -24L25.25 -24.1L25.05 -31.5L21.45 -31.3L15.2 -31.05L8.8 -30.85L4.7 -30.75L4.7 -28.35L4.7 -24.3L4.75 -20.35L4.8 -18.3L4.8 -12.55L4.75 -10.45L4.75 -6.75L4.7 -2.75L4.7 0L8.85 0.05L15.6 0.25L22.2 0.4L26 0.45L25.85 -7.3" />
</g>
<g id="PathID_111" transform="matrix(0.352941, 0, 0, 0.352941, 155.15, 219)">
<path style="fill:#FADC14;fill-opacity:1" d="M31.4 -9.9L31.4 -11.75L31.45 -14.2L21 -14.2L21 -12.1L21.1 -10.25L21.1 -6.95Q19.35 -6.9 17.55 -7.4Q15.8 -7.95 14.55 -9.2Q13.3 -10.5 13.25 -12.65Q13.35 -15.6 15.7 -17.65Q18.05 -19.75 21.45 -20.95Q24.9 -22.2 28.25 -22.55L26.1 -31.5Q16.5 -29.65 11.15 -26.1Q5.8 -22.6 3.65 -18.75Q1.5 -14.95 1.6 -12.15Q1.55 -8.7 3.55 -5.8Q5.6 -2.9 9.9 -1.1Q14.2 0.65 21.1 0.7Q24.7 0.7 27.55 0.3Q30.4 -0.05 31.5 -0.3L31.45 -2L31.4 -4.5L31.4 -6.7L31.4 -9.9" />
</g>
<g id="PathID_112" transform="matrix(0.352941, 0, 0, 0.352941, 167.4, 219)">
<path style="fill:#FADC14;fill-opacity:1" d="M9.15 1.5L10.3 -0.8L11.45 -3.1L12.1 -4.4L25.7 -5.05L26.6 -3.6L28.2 -1.05L29.8 1.45L39.15 -3.7L36.05 -8.1L30.7 -16L24.65 -24.9Q21.65 -29.3 19.45 -32.35L18.5 -32.35Q16.65 -29.75 13.8 -25.3L7.95 -16.1L2.75 -7.7L0 -3.2L9.15 1.5M14.95 -11.05L16.9 -14.9L18.8 -18.55Q19.45 -17.15 20.5 -15.2L22.6 -11.4L14.95 -11.05" />
</g>
<g id="PathID_113" transform="matrix(0.352941, 0, 0, 0.352941, 181.25, 219)">
<path style="fill:#FADC14;fill-opacity:1" d="M9.7 1.3Q10.05 0.5 10.7 -1.55L12.2 -6.1L13.65 -10.7L14.55 -13.75Q14.95 -13 16.4 -10.8L19.85 -5.8L23.6 -0.45L24.35 -0.45L28.3 -5.75L32.1 -11.05L34.15 -13.95L35.05 -11.55L36.8 -7.15L38.8 -2.35L40.35 1.3L49.9 -2.55L47.7 -7.05L43.85 -15.25L39.6 -24.2L36.3 -31L35.6 -31L32.1 -25.75L27.9 -19.35L24.9 -14.85L22.95 -17.8L19.9 -22.5L16.55 -27.55L13.85 -31.65L13.1 -31.65L10.85 -26.6L7.7 -19.3L4.45 -11.5L1.8 -5.05L0.45 -1.85L9.7 1.3" />
</g>
<g id="PathID_114" transform="matrix(0.352941, 0, 0, 0.352941, 199.05, 219)">
<path style="fill:#FADC14;fill-opacity:1" d="M25.85 -7.3L22.4 -7.2L18.15 -7.2L15.4 -7.2L15.4 -11.9L17.8 -11.85L21.35 -11.75L23.85 -11.75L23.75 -19Q22.65 -18.85 20.85 -18.75L17.5 -18.6L15.4 -18.55L15.4 -23.85L17.95 -23.9L22.1 -24L25.25 -24.1L25.05 -31.5L21.45 -31.3L15.2 -31.05L8.8 -30.85L4.7 -30.75L4.7 -28.35L4.7 -24.3L4.75 -20.35L4.8 -18.3L4.8 -12.55L4.75 -10.45L4.75 -6.75L4.7 -2.75L4.7 0L8.85 0.05L15.6 0.25L22.2 0.4L26 0.45L25.85 -7.3" />
</g>
<g id="PathID_115" transform="matrix(0.352941, 0, 0, 0.352941, 163.75, 17)">
<path style="fill:#FADC14;fill-opacity:1" d="M16.1 0L16 -2.65L15.9 -6.9L15.85 -10.25L15.85 -11.5L27.1 -12.35L27.1 -9.3L27.05 -6.85L26.95 -2.9L26.85 0L38.3 0L38.2 -2.15L38.1 -6.2L38.05 -10.2L38.05 -12.25L38.05 -16.55L38.05 -19.05L38.15 -23.65L38.2 -28.25L38.3 -30.75L26.85 -30.75Q26.95 -30.15 26.95 -28.15L27.05 -24.2L27.1 -21.75L27.1 -20.15L15.85 -19.3L15.85 -20.85L15.85 -22.6L15.95 -25.75L16.05 -28.95L16.15 -30.75L4.65 -30.75L4.75 -28.4L4.8 -24.15L4.85 -20L4.9 -17.85L4.9 -13.15L4.85 -10.85L4.85 -6.85L4.8 -2.65L4.8 0L16.1 0" />
</g>
<g id="PathID_116" transform="matrix(0.352941, 0, 0, 0.352941, 178.9, 17)">
<path style="fill:#FADC14;fill-opacity:1" d="M25.85 -7.3L22.4 -7.2L18.15 -7.2L15.4 -7.2L15.4 -11.9L17.8 -11.85L21.35 -11.75L23.85 -11.75L23.75 -19Q22.65 -18.85 20.85 -18.75L17.5 -18.6L15.4 -18.55L15.4 -23.85L17.95 -23.9L22.1 -24L25.25 -24.1L25.05 -31.5L21.45 -31.3L15.2 -31.05L8.8 -30.85L4.7 -30.75L4.7 -28.35L4.7 -24.3L4.75 -20.35L4.8 -18.3L4.8 -12.55L4.75 -10.45L4.75 -6.75L4.7 -2.75L4.7 0L8.85 0.05L15.6 0.25L22.2 0.4L26 0.45L25.85 -7.3" />
</g>
<g id="PathID_117" transform="matrix(0.352941, 0, 0, 0.352941, 193.65, 17)">
<path style="fill:#FADC14;fill-opacity:1" d="M31.4 -9.9L31.4 -11.75L31.45 -14.2L21 -14.2L21 -12.1L21.1 -10.25L21.1 -6.95Q19.35 -6.9 17.55 -7.4Q15.8 -7.95 14.55 -9.2Q13.3 -10.5 13.25 -12.65Q13.35 -15.6 15.7 -17.65Q18.05 -19.75 21.45 -20.95Q24.9 -22.2 28.25 -22.55L26.1 -31.5Q16.5 -29.65 11.15 -26.1Q5.8 -22.6 3.65 -18.75Q1.5 -14.95 1.6 -12.15Q1.55 -8.7 3.55 -5.8Q5.6 -2.9 9.9 -1.1Q14.2 0.65 21.1 0.7Q24.7 0.7 27.55 0.3Q30.4 -0.05 31.5 -0.3L31.45 -2L31.4 -4.5L31.4 -6.7L31.4 -9.9" />
</g>
<g id="PathID_118" transform="matrix(0.352941, 0, 0, 0.352941, 205.9, 17)">
<path style="fill:#FADC14;fill-opacity:1" d="M9.15 1.5L10.3 -0.8L11.45 -3.1L12.1 -4.4L25.7 -5.05L26.6 -3.6L28.2 -1.05L29.8 1.45L39.15 -3.7L36.05 -8.1L30.7 -16L24.65 -24.9Q21.65 -29.3 19.45 -32.35L18.5 -32.35Q16.65 -29.75 13.8 -25.3L7.95 -16.1L2.75 -7.7L0 -3.2L9.15 1.5M14.95 -11.05L16.9 -14.9L18.8 -18.55Q19.45 -17.15 20.5 -15.2L22.6 -11.4L14.95 -11.05" />
</g>
<g id="PathID_119" transform="matrix(0.352941, 0, 0, 0.352941, 219.1, 17)">
<path style="fill:#FADC14;fill-opacity:1" d="M20.95 0L20.85 -2.3L20.8 -6.55L20.8 -11.3L20.8 -22.95L22.4 -22.9L25.6 -22.8L28.85 -22.75L30.7 -22.65L30.7 -30.65L27.8 -30.5L23.55 -30.4L19.55 -30.3L17.45 -30.3L13.45 -30.3L11.4 -30.3L7.2 -30.4L2.75 -30.5L-0.15 -30.65L-0.15 -22.65L2.6 -22.75L6.65 -22.85L9.8 -22.95L9.8 -11.95L9.75 -7L9.7 -2.55L9.7 0L20.95 0" />
</g>
<g id="PathID_120" transform="matrix(0.352941, 0, 0, 0.352941, 229.9, 17)">
<path style="fill:#FADC14;fill-opacity:1" d="M25.85 -7.3L22.4 -7.2L18.15 -7.2L15.4 -7.2L15.4 -11.9L17.8 -11.85L21.35 -11.75L23.85 -11.75L23.75 -19Q22.65 -18.85 20.85 -18.75L17.5 -18.6L15.4 -18.55L15.4 -23.85L17.95 -23.9L22.1 -24L25.25 -24.1L25.05 -31.5L21.45 -31.3L15.2 -31.05L8.8 -30.85L4.7 -30.75L4.7 -28.35L4.7 -24.3L4.75 -20.35L4.8 -18.3L4.8 -12.55L4.75 -10.45L4.75 -6.75L4.7 -2.75L4.7 0L8.85 0.05L15.6 0.25L22.2 0.4L26 0.45L25.85 -7.3" />
</g>
<g id="PathID_121" transform="matrix(0.352941, 0, 0, 0.352941, 240.15, 17)">
<path style="fill:#FADC14;fill-opacity:1" d="M3.95 0.85Q11.2 0.25 15.75 -1.65Q20.35 -3.6 22.5 -6.2Q24.65 -8.85 24.6 -11.55Q24.55 -13.7 23.35 -15.1Q22.15 -16.5 20.55 -17.35Q18.95 -18.2 17.65 -18.7Q15.35 -19.55 14.15 -20.15Q12.95 -20.8 12.9 -21.6Q12.9 -22.95 15.3 -23.4Q17.7 -23.85 22.45 -23.85L21.25 -31.65Q15.05 -31.3 10.6 -29.65Q6.2 -28 3.8 -25.55Q1.45 -23.15 1.45 -20.4Q1.5 -18.4 2.55 -16.95Q3.6 -15.55 5.15 -14.55Q6.75 -13.6 8.25 -12.95Q11.1 -11.7 12.1 -11Q13.1 -10.35 13.05 -9.65Q13 -8.65 11.5 -8Q10 -7.35 7.65 -7.05Q5.35 -6.8 2.8 -6.85L3.95 0.85" />
</g>
<g id="PathID_122" transform="matrix(0.352941, 0, 0, 0.352941, -55.7, 43)">
<path style="fill:#FADC14;fill-opacity:1" d="M9.15 1.5L10.3 -0.8L11.45 -3.1L12.1 -4.4L25.7 -5.05L26.6 -3.6L28.2 -1.05L29.8 1.45L39.15 -3.7L36.05 -8.1L30.7 -16L24.65 -24.9Q21.65 -29.3 19.45 -32.35L18.5 -32.35Q16.65 -29.75 13.8 -25.3L7.95 -16.1L2.75 -7.7L0 -3.2L9.15 1.5M14.95 -11.05L16.9 -14.9L18.8 -18.55Q19.45 -17.15 20.5 -15.2L22.6 -11.4L14.95 -11.05" />
</g>
<g id="PathID_123" transform="matrix(0.352941, 0, 0, 0.352941, -43.15, 43)">
<path style="fill:#FADC14;fill-opacity:1" d="M28.1 -31.7L26.6 -28.75L23.85 -23.35L20.95 -17.65L19.05 -13.8L17.2 -17.55L14.45 -23.1L11.8 -28.5L10.25 -31.7L0.05 -26.55L2.75 -22.1L7.7 -14.05L13.3 -5.15Q16.05 -0.85 17.95 1.9L18.9 1.9L22.05 -2.8L26.7 -9.7L31.65 -17.2L35.8 -23.5L38.1 -26.95L28.1 -31.7" />
</g>
<g id="PathID_124" transform="matrix(0.352941, 0, 0, 0.352941, -29.95, 43)">
<path style="fill:#FADC14;fill-opacity:1" d="M19.9 0.7Q25.7 0.65 29.6 -1Q33.5 -2.7 35.8 -5.3Q38.1 -7.9 39.1 -10.8Q40.1 -13.7 40.05 -16.2Q40 -23.4 35.25 -27.35Q30.55 -31.35 22.1 -31.4Q15.25 -31.35 10.75 -28.8Q6.3 -26.25 4.1 -22.3Q1.95 -18.35 1.95 -14.1Q1.9 -10.55 3.8 -7.15Q5.7 -3.8 9.65 -1.55Q13.65 0.65 19.9 0.7M20.4 -6.3Q17.65 -6.3 15.75 -8.4Q13.9 -10.5 13.8 -14.75Q13.85 -18.75 15.8 -21.5Q17.75 -24.25 21.5 -24.4Q24.7 -24.35 26.4 -22.15Q28.15 -20 28.2 -15.9Q28.15 -11.1 26.05 -8.7Q24 -6.3 20.4 -6.3" />
</g>
<g id="PathID_125" transform="matrix(0.352941, 0, 0, 0.352941, -15.2, 43)">
<path style="fill:#FADC14;fill-opacity:1" d="M15.65 -17.75L15.7 -23.25L15.8 -28.2L15.9 -30.75L4.6 -30.75L4.6 -28.4L4.6 -24.15L4.65 -20L4.7 -17.8L4.7 -13.15L4.65 -10.85L4.65 -6.85L4.6 -2.65L4.6 0L15.9 0L15.8 -2.85L15.7 -7.95L15.65 -13.1L15.65 -17.75" />
</g>
<g id="PathID_126" transform="matrix(0.352941, 0, 0, 0.352941, -8, 43)">
<path style="fill:#FADC14;fill-opacity:1" d="M4.8 -13.7L4.75 -11.3L4.7 -7.05L4.6 -2.6Q4.6 -0.6 4.5 0.2Q10.3 0.4 16 -0.6Q21.7 -1.65 26.4 -3.95Q31.1 -6.25 33.95 -10Q36.8 -13.75 36.85 -19Q36.95 -20.8 35.85 -23.05Q34.75 -25.35 31.6 -27.3Q28.5 -29.25 22.45 -30.05Q19.35 -30.45 15.15 -30.6Q11 -30.8 4.55 -30.75Q4.65 -30.25 4.65 -28.55L4.7 -24.8L4.75 -21.1L4.8 -19.05L4.8 -13.7M15.55 -23.65Q18.05 -23.65 20.25 -23.2Q22.5 -22.8 23.9 -21.45Q25.3 -20.1 25.35 -17.45Q25.25 -14.45 23.7 -12.4Q22.2 -10.35 19.95 -9.2Q17.75 -8.1 15.55 -7.85L15.55 -23.65" />
</g>
<g id="PathID_127" transform="matrix(0.352941, 0, 0, 0.352941, 10.2, 43)">
<path style="fill:#FADC14;fill-opacity:1" d="M40.5 -30.9L39.3 -27.65L37.6 -22.7L35.9 -17.85L34.8 -14.8L34.7 -14.8L31 -19.7Q28.6 -22.95 25.55 -27.35L24.85 -27.35L19.1 -18.75Q16.65 -15.1 16.05 -14L15.05 -16.8L13.5 -21.5L11.8 -26.75L10.4 -31.3L0.35 -27.8L2.4 -23.1L5.45 -16.05L8.8 -8.35L11.75 -1.7Q13.05 1.15 13.65 2.2L14.3 2.2L17.35 -1.9L21.35 -7.3L24.95 -12.1L27.8 -8.35L31.75 -3.15Q33.8 -0.5 35.15 1.1L35.85 1.1Q36.45 0.15 37.95 -2.8L41.4 -9.7L45.25 -17.5L48.5 -24.05L50.15 -27.3L40.5 -30.9" />
</g>
<g id="PathID_128" transform="matrix(0.352941, 0, 0, 0.352941, 26.35, 43)">
<path style="fill:#FADC14;fill-opacity:1" d="M9.15 1.5L10.3 -0.8L11.45 -3.1L12.1 -4.4L25.7 -5.05L26.6 -3.6L28.2 -1.05L29.8 1.45L39.15 -3.7L36.05 -8.1L30.7 -16L24.65 -24.9Q21.65 -29.3 19.45 -32.35L18.5 -32.35Q16.65 -29.75 13.8 -25.3L7.95 -16.1L2.75 -7.7L0 -3.2L9.15 1.5M14.95 -11.05L16.9 -14.9L18.8 -18.55Q19.45 -17.15 20.5 -15.2L22.6 -11.4L14.95 -11.05" />
</g>
<g id="PathID_129" transform="matrix(0.352941, 0, 0, 0.352941, 40.2, 43)">
<path style="fill:#FADC14;fill-opacity:1" d="M4.65 -30.75L4.65 -28.55L4.7 -24.5L4.75 -20.45L4.8 -18.35L4.8 -12.55L4.75 -10.45L4.75 -6.75L4.7 -2.75L4.7 0L9.5 0.05L16.35 0.25L22.75 0.4L26.1 0.45L26.05 -8L22 -7.85L18.1 -7.75L15.75 -7.75L15.75 -15.35L15.85 -21.55L15.95 -27.5L16.05 -30.75L4.65 -30.75" />
</g>
<g id="PathID_130" transform="matrix(0.352941, 0, 0, 0.352941, 49.8, 43)">
<path style="fill:#FADC14;fill-opacity:1" d="M4.65 -30.75L4.65 -28.55L4.7 -24.5L4.75 -20.45L4.8 -18.35L4.8 -12.55L4.75 -10.45L4.75 -6.75L4.7 -2.75L4.7 0L9.5 0.05L16.35 0.25L22.75 0.4L26.1 0.45L26.05 -8L22 -7.85L18.1 -7.75L15.75 -7.75L15.75 -15.35L15.85 -21.55L15.95 -27.5L16.05 -30.75L4.65 -30.75" />
</g>
<g id="PathID_131" transform="matrix(0.352941, 0, 0, 0.352941, 59.4, 43)">
<path style="fill:#FADC14;fill-opacity:1" d="M3.95 0.85Q11.2 0.25 15.75 -1.65Q20.35 -3.6 22.5 -6.2Q24.65 -8.85 24.6 -11.55Q24.55 -13.7 23.35 -15.1Q22.15 -16.5 20.55 -17.35Q18.95 -18.2 17.65 -18.7Q15.35 -19.55 14.15 -20.15Q12.95 -20.8 12.9 -21.6Q12.9 -22.95 15.3 -23.4Q17.7 -23.85 22.45 -23.85L21.25 -31.65Q15.05 -31.3 10.6 -29.65Q6.2 -28 3.8 -25.55Q1.45 -23.15 1.45 -20.4Q1.5 -18.4 2.55 -16.95Q3.6 -15.55 5.15 -14.55Q6.75 -13.6 8.25 -12.95Q11.1 -11.7 12.1 -11Q13.1 -10.35 13.05 -9.65Q13 -8.65 11.5 -8Q10 -7.35 7.65 -7.05Q5.35 -6.8 2.8 -6.85L3.95 0.85" />
</g>
<g id="PathID_132" transform="matrix(0.352941, 0, 0, 0.352941, 68.6, 43)">
<path style="fill:#FADC14;fill-opacity:1" d="M2.5 5.2L6.05 6.8L13.3 -4.8L5.8 -8.2L2.5 5.2" />
</g>
<g id="PathID_133" transform="matrix(0.352941, 0, 0, 0.352941, 78.7, 43)">
<path style="fill:#FADC14;fill-opacity:1" d="M27.65 -7.9L25.65 -7.75L23.15 -7.65Q18.5 -7.7 16 -9.25Q13.5 -10.85 13.45 -13.45Q13.4 -16.5 16.55 -19.05Q19.75 -21.6 26.85 -22.85L24.8 -31.4Q16.8 -29.9 11.65 -26.75Q6.5 -23.65 4 -19.8Q1.55 -16 1.6 -12.3Q1.55 -9.25 3.65 -6.25Q5.75 -3.3 10.4 -1.3Q15.05 0.65 22.6 0.7Q24.25 0.7 25.55 0.6L28.1 0.35L27.65 -7.9" />
</g>
<g id="PathID_134" transform="matrix(0.352941, 0, 0, 0.352941, 89.35, 43)">
<path style="fill:#FADC14;fill-opacity:1" d="M9.15 1.5L10.3 -0.8L11.45 -3.1L12.1 -4.4L25.7 -5.05L26.6 -3.6L28.2 -1.05L29.8 1.45L39.15 -3.7L36.05 -8.1L30.7 -16L24.65 -24.9Q21.65 -29.3 19.45 -32.35L18.5 -32.35Q16.65 -29.75 13.8 -25.3L7.95 -16.1L2.75 -7.7L0 -3.2L9.15 1.5M14.95 -11.05L16.9 -14.9L18.8 -18.55Q19.45 -17.15 20.5 -15.2L22.6 -11.4L14.95 -11.05" />
</g>
<g id="PathID_135" transform="matrix(0.352941, 0, 0, 0.352941, 102.55, 43)">
<path style="fill:#FADC14;fill-opacity:1" d="M20.95 0L20.85 -2.3L20.8 -6.55L20.8 -11.3L20.8 -22.95L22.4 -22.9L25.6 -22.8L28.85 -22.75L30.7 -22.65L30.7 -30.65L27.8 -30.5L23.55 -30.4L19.55 -30.3L17.45 -30.3L13.45 -30.3L11.4 -30.3L7.2 -30.4L2.75 -30.5L-0.15 -30.65L-0.15 -22.65L2.6 -22.75L6.65 -22.85L9.8 -22.95L9.8 -11.95L9.75 -7L9.7 -2.55L9.7 0L20.95 0" />
</g>
<g id="PathID_136" transform="matrix(0.352941, 0, 0, 0.352941, 113.35, 43)">
<path style="fill:#FADC14;fill-opacity:1" d="M3.95 0.85Q11.2 0.25 15.75 -1.65Q20.35 -3.6 22.5 -6.2Q24.65 -8.85 24.6 -11.55Q24.55 -13.7 23.35 -15.1Q22.15 -16.5 20.55 -17.35Q18.95 -18.2 17.65 -18.7Q15.35 -19.55 14.15 -20.15Q12.95 -20.8 12.9 -21.6Q12.9 -22.95 15.3 -23.4Q17.7 -23.85 22.45 -23.85L21.25 -31.65Q15.05 -31.3 10.6 -29.65Q6.2 -28 3.8 -25.55Q1.45 -23.15 1.45 -20.4Q1.5 -18.4 2.55 -16.95Q3.6 -15.55 5.15 -14.55Q6.75 -13.6 8.25 -12.95Q11.1 -11.7 12.1 -11Q13.1 -10.35 13.05 -9.65Q13 -8.65 11.5 -8Q10 -7.35 7.65 -7.05Q5.35 -6.8 2.8 -6.85L3.95 0.85" />
</g>
<g id="PathID_137" transform="matrix(0.352941, 0, 0, 0.352941, 127.05, 43)">
<path style="fill:#FADC14;fill-opacity:1" d="M9.15 1.5L10.3 -0.8L11.45 -3.1L12.1 -4.4L25.7 -5.05L26.6 -3.6L28.2 -1.05L29.8 1.45L39.15 -3.7L36.05 -8.1L30.7 -16L24.65 -24.9Q21.65 -29.3 19.45 -32.35L18.5 -32.35Q16.65 -29.75 13.8 -25.3L7.95 -16.1L2.75 -7.7L0 -3.2L9.15 1.5M14.95 -11.05L16.9 -14.9L18.8 -18.55Q19.45 -17.15 20.5 -15.2L22.6 -11.4L14.95 -11.05" />
</g>
<g id="PathID_138" transform="matrix(0.352941, 0, 0, 0.352941, 140.9, 43)">
<path style="fill:#FADC14;fill-opacity:1" d="M13.1 0.3L13.1 -2.2L13.05 -6.65L13.05 -11.3L13.05 -14.35L16.55 -11.7L22.85 -7.2L29.6 -2.45Q32.85 -0.25 34.75 0.85L35.5 0.65L35.8 -5.65L36.35 -14.55L36.9 -23.75L37.45 -30.75L27.5 -30.95L27.45 -28.15L27.45 -23.7L27.5 -19.15L27.55 -16.1Q27.1 -16.55 24.65 -18.3L18.75 -22.45Q15.3 -24.9 11.8 -27.25Q8.3 -29.65 5.8 -31.25L4.95 -31L4.6 -25.85L4.15 -18.5L3.7 -10.55L3.3 -3.8L3.1 0L13.1 0.3" />
</g>
<g id="PathID_139" transform="matrix(0.352941, 0, 0, 0.352941, 155.25, 43)">
<path style="fill:#FADC14;fill-opacity:1" d="M4.8 -13.7L4.75 -11.3L4.7 -7.05L4.6 -2.6Q4.6 -0.6 4.5 0.2Q10.3 0.4 16 -0.6Q21.7 -1.65 26.4 -3.95Q31.1 -6.25 33.95 -10Q36.8 -13.75 36.85 -19Q36.95 -20.8 35.85 -23.05Q34.75 -25.35 31.6 -27.3Q28.5 -29.25 22.45 -30.05Q19.35 -30.45 15.15 -30.6Q11 -30.8 4.55 -30.75Q4.65 -30.25 4.65 -28.55L4.7 -24.8L4.75 -21.1L4.8 -19.05L4.8 -13.7M15.55 -23.65Q18.05 -23.65 20.25 -23.2Q22.5 -22.8 23.9 -21.45Q25.3 -20.1 25.35 -17.45Q25.25 -14.45 23.7 -12.4Q22.2 -10.35 19.95 -9.2Q17.75 -8.1 15.55 -7.85L15.55 -23.65" />
</g>
<g id="PathID_140" transform="matrix(0.352941, 0, 0, 0.352941, 173.45, 43)">
<path style="fill:#FADC14;fill-opacity:1" d="M20.95 0L20.85 -2.3L20.8 -6.55L20.8 -11.3L20.8 -22.95L22.4 -22.9L25.6 -22.8L28.85 -22.75L30.7 -22.65L30.7 -30.65L27.8 -30.5L23.55 -30.4L19.55 -30.3L17.45 -30.3L13.45 -30.3L11.4 -30.3L7.2 -30.4L2.75 -30.5L-0.15 -30.65L-0.15 -22.65L2.6 -22.75L6.65 -22.85L9.8 -22.95L9.8 -11.95L9.75 -7L9.7 -2.55L9.7 0L20.95 0" />
</g>
<g id="PathID_141" transform="matrix(0.352941, 0, 0, 0.352941, 184.25, 43)">
<path style="fill:#FADC14;fill-opacity:1" d="M15.45 -24.55Q18.9 -24.45 20.2 -23.35Q21.5 -22.3 21.45 -20.75Q21.35 -18.35 19.75 -16.7Q18.2 -15.1 16.3 -14.2L18.35 -11.2L21.75 -6.25L25.15 -1.35L27.15 1.5L36.2 -5.1L33.55 -7.7L29.6 -11.45L26.85 -14.15Q29.65 -15.9 31.15 -18Q32.65 -20.15 32.65 -22.85Q32.65 -25.85 29.95 -27.7Q27.25 -29.6 22.15 -30.25Q18.75 -30.65 14.2 -30.7Q9.65 -30.8 4.65 -30.75L4.75 -28.8L4.8 -25.15L4.85 -21.45L4.9 -19.2L4.9 -12.2L4.9 -10L4.85 -6.1L4.8 -2.2L4.75 0L15.7 0L15.6 -2.1L15.5 -6.25L15.45 -10.55L15.45 -13.25L15.45 -24.55" />
</g>
<g id="PathID_142" transform="matrix(0.352941, 0, 0, 0.352941, 196.95, 43)">
<path style="fill:#FADC14;fill-opacity:1" d="M9.15 1.5L10.3 -0.8L11.45 -3.1L12.1 -4.4L25.7 -5.05L26.6 -3.6L28.2 -1.05L29.8 1.45L39.15 -3.7L36.05 -8.1L30.7 -16L24.65 -24.9Q21.65 -29.3 19.45 -32.35L18.5 -32.35Q16.65 -29.75 13.8 -25.3L7.95 -16.1L2.75 -7.7L0 -3.2L9.15 1.5M14.95 -11.05L16.9 -14.9L18.8 -18.55Q19.45 -17.15 20.5 -15.2L22.6 -11.4L14.95 -11.05" />
</g>
<g id="PathID_143" transform="matrix(0.352941, 0, 0, 0.352941, 210.8, 43)">
<path style="fill:#FADC14;fill-opacity:1" d="M15.5 0L15.5 -1.8L15.45 -4.45L15.45 -6.3L15.45 -7.45Q21.05 -8.3 24.8 -10.35Q28.6 -12.45 30.55 -15.25Q32.5 -18.1 32.5 -21.15Q32.4 -24.8 29.9 -26.85Q27.4 -28.9 23.8 -29.65Q21 -30.3 16.45 -30.55Q11.95 -30.8 4.65 -30.75L4.65 -28.95L4.65 -25.6L4.7 -22.15L4.75 -20.15L4.75 -15.4L4.7 -11.9L4.65 -7.2L4.65 -2.75L4.65 0L15.5 0M15.45 -24.5Q18.9 -24.2 20.2 -23Q21.55 -21.8 21.5 -19.95Q21.45 -17.95 20.45 -16.6Q19.5 -15.3 18.1 -14.6Q16.75 -13.9 15.45 -13.85L15.45 -24.5" />
</g>
<g id="PathID_144" transform="matrix(0.352941, 0, 0, 0.352941, 222.85, 43)">
<path style="fill:#FADC14;fill-opacity:1" d="M3.95 0.85Q11.2 0.25 15.75 -1.65Q20.35 -3.6 22.5 -6.2Q24.65 -8.85 24.6 -11.55Q24.55 -13.7 23.35 -15.1Q22.15 -16.5 20.55 -17.35Q18.95 -18.2 17.65 -18.7Q15.35 -19.55 14.15 -20.15Q12.95 -20.8 12.9 -21.6Q12.9 -22.95 15.3 -23.4Q17.7 -23.85 22.45 -23.85L21.25 -31.65Q15.05 -31.3 10.6 -29.65Q6.2 -28 3.8 -25.55Q1.45 -23.15 1.45 -20.4Q1.5 -18.4 2.55 -16.95Q3.6 -15.55 5.15 -14.55Q6.75 -13.6 8.25 -12.95Q11.1 -11.7 12.1 -11Q13.1 -10.35 13.05 -9.65Q13 -8.65 11.5 -8Q10 -7.35 7.65 -7.05Q5.35 -6.8 2.8 -6.85L3.95 0.85" />
</g>
<g id="PathID_145" transform="matrix(0.352941, 0, 0, 0.352941, -158.7, 68)">
<path style="fill:#FADC14;fill-opacity:1" d="M15.5 0L15.5 -1.8L15.45 -4.45L15.45 -6.3L15.45 -7.45Q21.05 -8.3 24.8 -10.35Q28.6 -12.45 30.55 -15.25Q32.5 -18.1 32.5 -21.15Q32.4 -24.8 29.9 -26.85Q27.4 -28.9 23.8 -29.65Q21 -30.3 16.45 -30.55Q11.95 -30.8 4.65 -30.75L4.65 -28.95L4.65 -25.6L4.7 -22.15L4.75 -20.15L4.75 -15.4L4.7 -11.9L4.65 -7.2L4.65 -2.75L4.65 0L15.5 0M15.45 -24.5Q18.9 -24.2 20.2 -23Q21.55 -21.8 21.5 -19.95Q21.45 -17.95 20.45 -16.6Q19.5 -15.3 18.1 -14.6Q16.75 -13.9 15.45 -13.85L15.45 -24.5" />
</g>
<g id="PathID_146" transform="matrix(0.352941, 0, 0, 0.352941, -146.65, 68)">
<path style="fill:#FADC14;fill-opacity:1" d="M14.3 -22.95L14.35 -27.75Q14.45 -29.65 14.6 -30.45L3.2 -30.45L3.15 -28.75L3.15 -26.25L3.15 -23.9L3.15 -21.55Q3.1 -16.4 3.4 -13.25Q3.75 -10.1 4.4 -8.15Q5.1 -6.25 6.25 -4.75Q8 -2.3 10.3 -1.1Q12.65 0.05 15.05 0.4Q17.45 0.75 19.4 0.7Q23.3 0.7 26.6 -0.5Q29.95 -1.75 32.1 -4.15Q34.6 -7.1 35.4 -11.2Q36.2 -15.3 36.1 -21.45L36.1 -23.5L36.05 -28.25L36.05 -31.15L24.85 -31.15L25 -27.9L25.15 -23.6L25.15 -21.95Q25.15 -17.1 25.05 -14.55Q25 -12 24.7 -10.75Q24.45 -9.5 23.8 -8.7Q23.15 -7.8 22.2 -7.3Q21.25 -6.85 20 -6.8Q18.95 -6.8 18.05 -7.15Q17.15 -7.5 16.4 -8.25Q15.1 -9.6 14.7 -12.25Q14.3 -14.95 14.3 -20.05L14.3 -22.95" />
</g>
<g id="PathID_147" transform="matrix(0.352941, 0, 0, 0.352941, -132.75, 68)">
<path style="fill:#FADC14;fill-opacity:1" d="M20.95 0L20.85 -2.3L20.8 -6.55L20.8 -11.3L20.8 -22.95L22.4 -22.9L25.6 -22.8L28.85 -22.75L30.7 -22.65L30.7 -30.65L27.8 -30.5L23.55 -30.4L19.55 -30.3L17.45 -30.3L13.45 -30.3L11.4 -30.3L7.2 -30.4L2.75 -30.5L-0.15 -30.65L-0.15 -22.65L2.6 -22.75L6.65 -22.85L9.8 -22.95L9.8 -11.95L9.75 -7L9.7 -2.55L9.7 0L20.95 0" />
</g>
<g id="PathID_148" transform="matrix(0.352941, 0, 0, 0.352941, -117.45, 68)">
<path style="fill:#FADC14;fill-opacity:1" d="M20.95 0L20.85 -2.3L20.8 -6.55L20.8 -11.3L20.8 -22.95L22.4 -22.9L25.6 -22.8L28.85 -22.75L30.7 -22.65L30.7 -30.65L27.8 -30.5L23.55 -30.4L19.55 -30.3L17.45 -30.3L13.45 -30.3L11.4 -30.3L7.2 -30.4L2.75 -30.5L-0.15 -30.65L-0.15 -22.65L2.6 -22.75L6.65 -22.85L9.8 -22.95L9.8 -11.95L9.75 -7L9.7 -2.55L9.7 0L20.95 0" />
</g>
<g id="PathID_149" transform="matrix(0.352941, 0, 0, 0.352941, -106.65, 68)">
<path style="fill:#FADC14;fill-opacity:1" d="M16.1 0L16 -2.65L15.9 -6.9L15.85 -10.25L15.85 -11.5L27.1 -12.35L27.1 -9.3L27.05 -6.85L26.95 -2.9L26.85 0L38.3 0L38.2 -2.15L38.1 -6.2L38.05 -10.2L38.05 -12.25L38.05 -16.55L38.05 -19.05L38.15 -23.65L38.2 -28.25L38.3 -30.75L26.85 -30.75Q26.95 -30.15 26.95 -28.15L27.05 -24.2L27.1 -21.75L27.1 -20.15L15.85 -19.3L15.85 -20.85L15.85 -22.6L15.95 -25.75L16.05 -28.95L16.15 -30.75L4.65 -30.75L4.75 -28.4L4.8 -24.15L4.85 -20L4.9 -17.85L4.9 -13.15L4.85 -10.85L4.85 -6.85L4.8 -2.65L4.8 0L16.1 0" />
</g>
<g id="PathID_150" transform="matrix(0.352941, 0, 0, 0.352941, -91.5, 68)">
<path style="fill:#FADC14;fill-opacity:1" d="M25.85 -7.3L22.4 -7.2L18.15 -7.2L15.4 -7.2L15.4 -11.9L17.8 -11.85L21.35 -11.75L23.85 -11.75L23.75 -19Q22.65 -18.85 20.85 -18.75L17.5 -18.6L15.4 -18.55L15.4 -23.85L17.95 -23.9L22.1 -24L25.25 -24.1L25.05 -31.5L21.45 -31.3L15.2 -31.05L8.8 -30.85L4.7 -30.75L4.7 -28.35L4.7 -24.3L4.75 -20.35L4.8 -18.3L4.8 -12.55L4.75 -10.45L4.75 -6.75L4.7 -2.75L4.7 0L8.85 0.05L15.6 0.25L22.2 0.4L26 0.45L25.85 -7.3" />
</g>
<g id="PathID_151" transform="matrix(0.352941, 0, 0, 0.352941, -76.75, 68)">
<path style="fill:#FADC14;fill-opacity:1" d="M9.15 1.5L10.3 -0.8L11.45 -3.1L12.1 -4.4L25.7 -5.05L26.6 -3.6L28.2 -1.05L29.8 1.45L39.15 -3.7L36.05 -8.1L30.7 -16L24.65 -24.9Q21.65 -29.3 19.45 -32.35L18.5 -32.35Q16.65 -29.75 13.8 -25.3L7.95 -16.1L2.75 -7.7L0 -3.2L9.15 1.5M14.95 -11.05L16.9 -14.9L18.8 -18.55Q19.45 -17.15 20.5 -15.2L22.6 -11.4L14.95 -11.05" />
</g>
<g id="PathID_152" transform="matrix(0.352941, 0, 0, 0.352941, -62.9, 68)">
<path style="fill:#FADC14;fill-opacity:1" d="M15.45 -24.55Q18.9 -24.45 20.2 -23.35Q21.5 -22.3 21.45 -20.75Q21.35 -18.35 19.75 -16.7Q18.2 -15.1 16.3 -14.2L18.35 -11.2L21.75 -6.25L25.15 -1.35L27.15 1.5L36.2 -5.1L33.55 -7.7L29.6 -11.45L26.85 -14.15Q29.65 -15.9 31.15 -18Q32.65 -20.15 32.65 -22.85Q32.65 -25.85 29.95 -27.7Q27.25 -29.6 22.15 -30.25Q18.75 -30.65 14.2 -30.7Q9.65 -30.8 4.65 -30.75L4.75 -28.8L4.8 -25.15L4.85 -21.45L4.9 -19.2L4.9 -12.2L4.9 -10L4.85 -6.1L4.8 -2.2L4.75 0L15.7 0L15.6 -2.1L15.5 -6.25L15.45 -10.55L15.45 -13.25L15.45 -24.55" />
</g>
<g id="PathID_153" transform="matrix(0.352941, 0, 0, 0.352941, -50.2, 68)">
<path style="fill:#FADC14;fill-opacity:1" d="M15.45 -24.55Q18.9 -24.45 20.2 -23.35Q21.5 -22.3 21.45 -20.75Q21.35 -18.35 19.75 -16.7Q18.2 -15.1 16.3 -14.2L18.35 -11.2L21.75 -6.25L25.15 -1.35L27.15 1.5L36.2 -5.1L33.55 -7.7L29.6 -11.45L26.85 -14.15Q29.65 -15.9 31.15 -18Q32.65 -20.15 32.65 -22.85Q32.65 -25.85 29.95 -27.7Q27.25 -29.6 22.15 -30.25Q18.75 -30.65 14.2 -30.7Q9.65 -30.8 4.65 -30.75L4.75 -28.8L4.8 -25.15L4.85 -21.45L4.9 -19.2L4.9 -12.2L4.9 -10L4.85 -6.1L4.8 -2.2L4.75 0L15.7 0L15.6 -2.1L15.5 -6.25L15.45 -10.55L15.45 -13.25L15.45 -24.55" />
</g>
<g id="PathID_154" transform="matrix(0.352941, 0, 0, 0.352941, -37.5, 68)">
<path style="fill:#FADC14;fill-opacity:1" d="M19.9 0.7Q25.7 0.65 29.6 -1Q33.5 -2.7 35.8 -5.3Q38.1 -7.9 39.1 -10.8Q40.1 -13.7 40.05 -16.2Q40 -23.4 35.25 -27.35Q30.55 -31.35 22.1 -31.4Q15.25 -31.35 10.75 -28.8Q6.3 -26.25 4.1 -22.3Q1.95 -18.35 1.95 -14.1Q1.9 -10.55 3.8 -7.15Q5.7 -3.8 9.65 -1.55Q13.65 0.65 19.9 0.7M20.4 -6.3Q17.65 -6.3 15.75 -8.4Q13.9 -10.5 13.8 -14.75Q13.85 -18.75 15.8 -21.5Q17.75 -24.25 21.5 -24.4Q24.7 -24.35 26.4 -22.15Q28.15 -20 28.2 -15.9Q28.15 -11.1 26.05 -8.7Q24 -6.3 20.4 -6.3" />
</g>
<g id="PathID_155" transform="matrix(0.352941, 0, 0, 0.352941, -22.65, 68)">
<path style="fill:#FADC14;fill-opacity:1" d="M40.5 -30.9L39.3 -27.65L37.6 -22.7L35.9 -17.85L34.8 -14.8L34.7 -14.8L31 -19.7Q28.6 -22.95 25.55 -27.35L24.85 -27.35L19.1 -18.75Q16.65 -15.1 16.05 -14L15.05 -16.8L13.5 -21.5L11.8 -26.75L10.4 -31.3L0.35 -27.8L2.4 -23.1L5.45 -16.05L8.8 -8.35L11.75 -1.7Q13.05 1.15 13.65 2.2L14.3 2.2L17.35 -1.9L21.35 -7.3L24.95 -12.1L27.8 -8.35L31.75 -3.15Q33.8 -0.5 35.15 1.1L35.85 1.1Q36.45 0.15 37.95 -2.8L41.4 -9.7L45.25 -17.5L48.5 -24.05L50.15 -27.3L40.5 -30.9" />
</g>
<g id="PathID_156" transform="matrix(0.352941, 0, 0, 0.352941, -5.2, 68)">
<path style="fill:#FADC14;fill-opacity:1" d="M3.95 0.85Q11.2 0.25 15.75 -1.65Q20.35 -3.6 22.5 -6.2Q24.65 -8.85 24.6 -11.55Q24.55 -13.7 23.35 -15.1Q22.15 -16.5 20.55 -17.35Q18.95 -18.2 17.65 -18.7Q15.35 -19.55 14.15 -20.15Q12.95 -20.8 12.9 -21.6Q12.9 -22.95 15.3 -23.4Q17.7 -23.85 22.45 -23.85L21.25 -31.65Q15.05 -31.3 10.6 -29.65Q6.2 -28 3.8 -25.55Q1.45 -23.15 1.45 -20.4Q1.5 -18.4 2.55 -16.95Q3.6 -15.55 5.15 -14.55Q6.75 -13.6 8.25 -12.95Q11.1 -11.7 12.1 -11Q13.1 -10.35 13.05 -9.65Q13 -8.65 11.5 -8Q10 -7.35 7.65 -7.05Q5.35 -6.8 2.8 -6.85L3.95 0.85" />
</g>
<g id="PathID_157" transform="matrix(0.352941, 0, 0, 0.352941, 8.5, 68)">
<path style="fill:#FADC14;fill-opacity:1" d="M20.95 0L20.85 -2.3L20.8 -6.55L20.8 -11.3L20.8 -22.95L22.4 -22.9L25.6 -22.8L28.85 -22.75L30.7 -22.65L30.7 -30.65L27.8 -30.5L23.55 -30.4L19.55 -30.3L17.45 -30.3L13.45 -30.3L11.4 -30.3L7.2 -30.4L2.75 -30.5L-0.15 -30.65L-0.15 -22.65L2.6 -22.75L6.65 -22.85L9.8 -22.95L9.8 -11.95L9.75 -7L9.7 -2.55L9.7 0L20.95 0" />
</g>
<g id="PathID_158" transform="matrix(0.352941, 0, 0, 0.352941, 18.65, 68)">
<path style="fill:#FADC14;fill-opacity:1" d="M19.9 0.7Q25.7 0.65 29.6 -1Q33.5 -2.7 35.8 -5.3Q38.1 -7.9 39.1 -10.8Q40.1 -13.7 40.05 -16.2Q40 -23.4 35.25 -27.35Q30.55 -31.35 22.1 -31.4Q15.25 -31.35 10.75 -28.8Q6.3 -26.25 4.1 -22.3Q1.95 -18.35 1.95 -14.1Q1.9 -10.55 3.8 -7.15Q5.7 -3.8 9.65 -1.55Q13.65 0.65 19.9 0.7M20.4 -6.3Q17.65 -6.3 15.75 -8.4Q13.9 -10.5 13.8 -14.75Q13.85 -18.75 15.8 -21.5Q17.75 -24.25 21.5 -24.4Q24.7 -24.35 26.4 -22.15Q28.15 -20 28.2 -15.9Q28.15 -11.1 26.05 -8.7Q24 -6.3 20.4 -6.3" />
</g>
</svg>
