<?xml version="1.0" encoding="utf-8"?>
<svg version="1.1" id="Layer_1"
xmlns="http://www.w3.org/2000/svg"
xmlns:xlink="http://www.w3.org/1999/xlink"
width="550px" height="400px"
xml:space="preserve">
<g id="PathID_159" transform="matrix(0.392157, 0, 0, 0.392157, 43.45, 20)">
<path style="fill:#000000;fill-opacity:1" d="M25.45 -25.75Q25.45 -27.15 24.85 -28.15Q24.3 -29.15 22.9 -29.7Q21.95 -30.1 20.65 -30.2Q19.4 -30.3 17.7 -30.3L14.3 -30.3L14.3 -20.3L17.2 -20.3Q19.45 -20.3 20.95 -20.5Q22.5 -20.7 23.55 -21.5Q24.5 -22.3 24.95 -23.2Q25.45 -24.15 25.45 -25.75M40.45 0L28.75 0L18.7 -13.6L14.3 -13.6L14.3 0L4.75 0L4.75 -37.1L20.75 -37.1Q24.05 -37.1 26.4 -36.7Q28.75 -36.35 30.8 -35.1Q32.9 -33.85 34.15 -31.85Q35.4 -29.85 35.4 -26.9Q35.4 -22.75 33.5 -20.15Q31.6 -17.6 28.05 -15.85L40.45 0" />
</g>
<g id="PathID_160" transform="matrix(0.392157, 0, 0, 0.392157, 59.1, 20)">
<path style="fill:#000000;fill-opacity:1" d="M37.2 -13.4Q37.2 -6.55 33 -2.9Q28.8 0.75 20.65 0.75Q12.5 0.75 8.35 -2.9Q4.2 -6.55 4.2 -13.4L4.2 -37.1L13.75 -37.1L13.75 -13.95Q13.75 -10.05 15.35 -8.15Q17 -6.3 20.65 -6.3Q24.3 -6.3 25.95 -8.1Q27.65 -9.9 27.65 -13.95L27.65 -37.1L37.2 -37.1L37.2 -13.4" />
</g>
<g id="PathID_161" transform="matrix(0.392157, 0, 0, 0.392157, 75.35, 20)">
<path style="fill:#000000;fill-opacity:1" d="M38.45 0L29.25 0L13.5 -25.45L13.5 0L4.75 0L4.75 -37.1L16.15 -37.1L29.7 -15.8L29.7 -37.1L38.45 -37.1L38.45 0" />
</g>
<g id="PathID_162" transform="matrix(0.392157, 0, 0, 0.392157, 92.3, 20)">
<path style="fill:#000000;fill-opacity:1" d="M15.45 -37.1L14.3 -10.65L6.2 -10.65L5.1 -37.1L15.45 -37.1M15.3 0L5.25 0L5.25 -6.55L15.3 -6.55L15.3 0" />
</g>
</svg>
