<?xml version="1.0" encoding="utf-8"?>
<svg version="1.1" id="Layer_1"
xmlns="http://www.w3.org/2000/svg"
xmlns:xlink="http://www.w3.org/1999/xlink"
width="550px" height="400px"
xml:space="preserve">
<g id="PathID_14">
<g id="PathID_46" transform="matrix(1, 0, 0, 1, 0, 0)">
<path style="fill:#896418;fill-opacity:1" d="M15.15 14L15.15 8.25L11.25 8.25L11.25 -3.75L15.15 -3.75L15.15 -9.5L11.25 -9.5L11.25 -14.35Q14.45 -24.2 17.65 -14.35L17.65 18.9L11.25 18.9L11.25 14L15.15 14M8.15 14L8.15 18.9L1.75 18.9L1.75 14L8.15 14M-1.6 14L-1.6 18.9L-8 18.9L-8 14L-1.6 14M-11.2 -9.5L-15.35 -9.5L-15.35 -3.75L-11.1 -3.75L-11.1 8.25L-15.35 8.25L-15.35 14L-11.1 14L-11.1 18.9L-17.5 18.9L-17.5 -14.35Q-14.3 -24.2 -11.1 -14.35L-11.1 -9.6L-11.2 -9.5M-7 -9.5L-8 -10.5L-8 -14.35Q-4.8 -24.2 -1.6 -14.35L-1.6 -9.5L-7 -9.5M1.75 -9.5L1.75 -14.35Q4.95 -24.2 8.15 -14.35L8.15 -9.5L1.75 -9.5M8.15 -3.75L8.15 5.65L1.75 -0.75L1.75 -3.75L8.15 -3.75M1.75 7.35L2.65 8.25L1.75 8.25L1.75 7.35M-8 -2.4L-1.6 4L-1.6 8.25L-8 8.25L-8 -2.4" />
<path style="fill:#795217;fill-opacity:1" d="M-1.6 4L-8 -2.4L-9.35 -3.75L-13.15 -7.55L-11.2 -9.5L-11.1 -9.6L-9.1 -11.6L-8 -10.5L-7 -9.5L-1.6 -9.5L1.75 -9.5L8.15 -9.5L11.25 -9.5L15.15 -9.5L15.15 -3.75L11.25 -3.75L8.15 -3.75L1.75 -3.75L-1.25 -3.75L1.75 -0.75L8.15 5.65L10.75 8.25L11.25 8.25L15.15 8.25L15.15 14L11.25 14L8.4 14L8.15 14L1.75 14L-1.6 14L-8 14L-11.1 14L-15.35 14L-15.35 8.25L-11.1 8.25L-8 8.25L-1.6 8.25L1.75 8.25L2.65 8.25L8.4 14L12.45 9.95L10.75 8.25L12.45 9.95L8.4 14L2.65 8.25L1.75 7.35L-1.6 4M-11.1 -3.75L-15.35 -3.75L-15.35 -9.5L-11.2 -9.5L-13.15 -7.55L-9.35 -3.75L-11.1 -3.75M-1.25 -3.75L-7 -9.5L-1.25 -3.75" />
<path style="fill:none;stroke-width:0.7;stroke-linecap:round;stroke-linejoin:round;stroke-miterlimit:3;stroke:#000000;stroke-opacity:1" d="M11.25 -9.5L11.25 -14.35Q14.45 -24.2 17.65 -14.35L17.65 18.9L11.25 18.9L11.25 14L8.4 14L8.15 14L8.15 18.9L1.75 18.9L1.75 14L-1.6 14L-1.6 18.9L-8 18.9L-8 14L-11.1 14L-11.1 18.9L-17.5 18.9L-17.5 -14.35Q-14.3 -24.2 -11.1 -14.35L-11.1 -9.6L-9.1 -11.6L-8 -10.5L-8 -14.35Q-4.8 -24.2 -1.6 -14.35L-1.6 -9.5L1.75 -9.5L1.75 -14.35Q4.95 -24.2 8.15 -14.35L8.15 -9.5L11.25 -9.5L15.15 -9.5L15.15 -3.75L11.25 -3.75L11.25 8.25L15.15 8.25L15.15 14L11.25 14" />
<path style="fill:none;stroke-width:0.7;stroke-linecap:round;stroke-linejoin:round;stroke-miterlimit:3;stroke:#000000;stroke-opacity:1" d="M1.75 -9.5L8.15 -9.5" />
<path style="fill:none;stroke-width:0.7;stroke-linecap:round;stroke-linejoin:round;stroke-miterlimit:3;stroke:#000000;stroke-opacity:1" d="M1.75 -0.75L1.75 -3.75L-1.25 -3.75L1.75 -0.75L8.15 5.65L8.15 -3.75L1.75 -3.75" />
<path style="fill:none;stroke-width:0.7;stroke-linecap:round;stroke-linejoin:round;stroke-miterlimit:3;stroke:#000000;stroke-opacity:1" d="M8.15 -3.75L11.25 -3.75" />
<path style="fill:none;stroke-width:0.7;stroke-linecap:round;stroke-linejoin:round;stroke-miterlimit:3;stroke:#000000;stroke-opacity:1" d="M10.75 8.25L12.45 9.95L8.4 14L2.65 8.25L1.75 8.25L-1.6 8.25L-8 8.25L-11.1 8.25L-15.35 8.25L-15.35 14L-11.1 14" />
<path style="fill:none;stroke-width:0.7;stroke-linecap:round;stroke-linejoin:round;stroke-miterlimit:3;stroke:#000000;stroke-opacity:1" d="M8.15 5.65L10.75 8.25L11.25 8.25" />
<path style="fill:none;stroke-width:0.7;stroke-linecap:round;stroke-linejoin:round;stroke-miterlimit:3;stroke:#000000;stroke-opacity:1" d="M2.65 8.25L1.75 7.35L1.75 8.25" />
<path style="fill:none;stroke-width:0.7;stroke-linecap:round;stroke-linejoin:round;stroke-miterlimit:3;stroke:#000000;stroke-opacity:1" d="M8.15 14L1.75 14" />
<path style="fill:none;stroke-width:0.7;stroke-linecap:round;stroke-linejoin:round;stroke-miterlimit:3;stroke:#000000;stroke-opacity:1" d="M-9.35 -3.75L-13.15 -7.55L-11.2 -9.5L-15.35 -9.5L-15.35 -3.75L-11.1 -3.75L-9.35 -3.75L-8 -2.4L-1.6 4L1.75 7.35" />
<path style="fill:none;stroke-width:0.7;stroke-linecap:round;stroke-linejoin:round;stroke-miterlimit:3;stroke:#000000;stroke-opacity:1" d="M-11.2 -9.5L-11.1 -9.6" />
<path style="fill:none;stroke-width:0.7;stroke-linecap:round;stroke-linejoin:round;stroke-miterlimit:3;stroke:#000000;stroke-opacity:1" d="M-8 -10.5L-7 -9.5L-1.6 -9.5" />
<path style="fill:none;stroke-width:0.7;stroke-linecap:round;stroke-linejoin:round;stroke-miterlimit:3;stroke:#000000;stroke-opacity:1" d="M-7 -9.5L-1.25 -3.75" />
<path style="fill:none;stroke-width:0.7;stroke-linecap:round;stroke-linejoin:round;stroke-miterlimit:3;stroke:#000000;stroke-opacity:1" d="M-1.6 8.25L-1.6 4" />
<path style="fill:none;stroke-width:0.7;stroke-linecap:round;stroke-linejoin:round;stroke-miterlimit:3;stroke:#000000;stroke-opacity:1" d="M-1.6 14L-8 14" />
<path style="fill:none;stroke-width:0.7;stroke-linecap:round;stroke-linejoin:round;stroke-miterlimit:3;stroke:#000000;stroke-opacity:1" d="M-8 8.25L-8 -2.4" />
<path style="fill:none;stroke-width:0.7;stroke-linecap:round;stroke-linejoin:round;stroke-miterlimit:3;stroke:#000000;stroke-opacity:1" d="M-11.1 -3.75L-11.1 8.25" />
</g>
</g>
</svg>
