<?xml version="1.0" encoding="utf-8"?>
<svg version="1.1" id="Layer_1"
xmlns="http://www.w3.org/2000/svg"
xmlns:xlink="http://www.w3.org/1999/xlink"
width="260px" height="308px"
xml:space="preserve">
<g id="PathID_1" transform="matrix(0.0352941, 0, 0, 0.0352941, 48, 37.8)">
<path style="fill:#FF66CC;fill-opacity:1" d="M50 103l71.5 33l146.5 -233.5l-151.5 -68.5l-66.5 269" />
</g>
<g id="PathID_2" transform="matrix(0.0352941, 0, 0, 0.0352941, 96, 37.8)">
<path style="fill:#FF66CC;fill-opacity:1" d="M184.5 29.5q10.5 -21.5 23 -47.5q13 -25.5 23 -46q10.5 -20.5 13 -25.5l273.5 -13q4.5 6 18.5 29q14 23 31.5 51.5q17.5 28.5 32 50.5l188.5 -103.5q-12.5 -16 -45.5 -64q-32.5 -48 -78 -115q-45.5 -67 -95.5 -140q-50 -73.5 -96 -141q-46.5 -67 -81.5 -115.5l-19.5 0q-24 34 -58 86.5q-34.5 52.5 -74 115q-39.5 62 -78.5 125q-39.5 62.5 -73 117.5q-34 54.5 -57.5 92.5q-23 37.5 -30.5 49l184.5 94.5M301 -222.5q18.5 -37 39 -77.5q21 -40.5 38 -73q13.5 28 35 66.5q21.5 38.5 41.5 77l-153.5 7" />
</g>
<g id="PathID_3" transform="matrix(0.0352941, 0, 0, 0.0352941, 144, 37.8)">
<path style="fill:#FF66CC;fill-opacity:1" d="M556 -158.5q-16.5 1.5 -39 3q-22.5 1 -51 1q-93.5 -1 -143.5 -32.5q-50.5 -31.5 -51 -83.5q-0.5 -40.5 27 -78q28 -37 87 -66q59.5 -29 154.5 -45.5l-41 -172q-120.5 22 -208.5 64q-88 41.5 -145 95.5q-57 54 -85 112q-27.5 58 -27.5 113q0 46 23 92q23.5 46 73.5 84q50 38.5 130.5 62q80.5 23.5 195 24q32.5 0 59.5 -2q26.5 -2 51 -5l-9.5 -166" />
</g>
<g id="PathID_4" transform="matrix(0.0352941, 0, 0, 0.0352941, 192, 37.8)">
<path style="fill:#FF66CC;fill-opacity:1" d="M96.5 -275.5q0 8 0 34.5q-0.5 26.5 -1 62.5q-0.5 36.5 -1 73.5q-0.5 37.5 -1.5 67q-0.5 29.5 -1.5 42q92 2.5 184.5 -10q92.5 -12.5 175.5 -41q83.5 -28.5 148.5 -74.5q65 -46.5 102 -111q37.5 -65 38.5 -149.5q0.5 -27 -10.5 -60q-11.5 -33.5 -42 -66q-30.5 -32.5 -88 -58.5q-57 -25.5 -148.5 -37.5q-42 -5.5 -92.5 -9q-50 -3 -115 -4q-64.5 -1.5 -151.5 -1.5q1 8 1.5 32q0.5 24.5 1 56.5q0.5 31.5 1 63.5q0.5 31.5 0.5 54.5q0 23 0 29l0 107.5M313.5 -475q49.5 -1 94 8q44.5 9 72.5 36q28 26.5 29 80q-0.5 45.5 -18.5 80q-18.5 34 -48 58q-29 23.5 -63 37.5q-34 13.5 -66 17.5l0 -317" />
</g>
<g id="PathID_5" transform="matrix(0.0352941, 0, 0, 0.0352941, 0, 84)">
<path style="fill:#FF66CC;fill-opacity:1" d="M519.5 -147q-17.5 1.5 -48 2q-30.5 0.5 -64.5 0.5q-33.5 0 -60 0q-27 -0.5 -36.5 -0.5l0 -94.5q8.5 0 31.5 0.5q23 0.5 51.5 1q28 0.5 52 1q24 0.5 34 0.5l-2 -145q-16 1.5 -41 3q-24.5 1.5 -51 2.5q-26.5 1 -47 2q-20.5 0.5 -28 0.5l0 -106q7 0 33 -0.5q25.5 -1 59 -2q33 -1 62.5 -1.5q29 -1 43 -1l-4 -149.5q-12.5 1 -52 3q-39 1.5 -92 4q-53 2 -107.5 4q-54 2 -97 3q-42.5 1.5 -61 1.5q0 8.5 0 34.5q0.5 26 0.5 60.5q0.5 34.5 1 68.5q0 33.5 0.5 57.5q0 24 0 29l0 115.5q0 9 0 42q0 32.5 0 75q-0.5 42.5 -1 80q-0.5 37.5 -1 56q17.5 0 61.5 1q44.5 1 101.5 2.5q57.5 1.5 113.5 2.5q56.5 1.5 97.5 2.5q41.5 1 54 1l-3 -156.5" />
</g>
<g id="PathID_6" transform="matrix(0.0352941, 0, 0, 0.0352941, 48, 84)">
<path style="fill:#FF66CC;fill-opacity:1" d="M314.5 0q0 -5.5 0 -26q-0.5 -21 -0.5 -47q0 -26 -0.5 -47q0 -21 0 -27.5l0 -69.5l189.5 2l-2 -144q-78.5 3 -125.5 5.5q-46.5 2.5 -62 2.5l0 -126l205 -4l-4.5 -150q-40 1.5 -98 3.5q-58 2 -120.5 4q-62.5 2 -116.5 3.5q-53.5 1.5 -85.5 1.5q0.5 8.5 0.5 34.5q0.5 26 1 60.5q0.5 34.5 0.5 68.5q0.5 33.5 1 57.5q0 24 0 29l0 115.5q0 9 0 42q0 32.5 -0.5 75q0 42.5 -1 80q-0.5 37.5 -1.5 56l221 0" />
</g>
<g id="PathID_7" transform="matrix(0.0352941, 0, 0, 0.0352941, 96, 84)">
<path style="fill:#FF66CC;fill-opacity:1" d="M632 -198.5q0 -18.5 0 -37.5q0 -19.5 1 -49.5l-211 0q0 23.5 1 42.5q1 19.5 1 37.5l0 65.5q-34.5 1.5 -70 -9.5q-36 -10.5 -60.5 -36q-25 -25.5 -26 -68q1 -45 28.5 -80q27.5 -34.5 72.5 -59.5q45 -24.5 97 -39.5q52.5 -15.5 103 -21l-43 -180.5q-145 27.5 -241 75.5q-96 48.5 -151 106q-55.5 57 -78 112q-23 55 -22.5 96q-0.5 69.5 40 128q40.5 58.5 127 94.5q86.5 35.5 224 36.5q48 0 90.5 -4q42.5 -3.5 74 -8.5q31 -4.5 45.5 -8q0 -10 -0.5 -34q-0.5 -24 -1 -50.5q-0.5 -26.5 -0.5 -44.5l0 -63.5" />
</g>
<g id="PathID_8" transform="matrix(0.0352941, 0, 0, 0.0352941, 144, 84)">
<path style="fill:#FF66CC;fill-opacity:1" d="M323.5 0q-0.5 -8.5 -1 -35q-0.5 -27 -1.5 -60.5q-0.5 -34 -1 -64q-0.5 -30.5 -0.5 -46.5l0 -25.5l224.5 -16l0 60q0 7 -0.5 32q-0.5 25 -1 57q-1 31.5 -1.5 59q-0.5 27.5 -1 39.5l229 0q-0.5 -6 -1 -31q-0.5 -25 -1.5 -59.5q-0.5 -34.5 -0.5 -68.5q-0.5 -34.5 -1 -58.5q0 -24 0 -28l0 -87q0 -7 0.5 -35.5q0 -28.5 0.5 -68q0.5 -39 1 -78.5q0.5 -39 1 -68q0.5 -28.5 1 -36l-229 0q0.5 8.5 1.5 34.5q0.5 26.5 1.5 58q0.5 32 0.5 57.5q0.5 25 0.5 31.5l0 33l-224.5 16l0 -30.5q0 -7 0.5 -35.5q0.5 -28.5 1.5 -64q0.5 -36 1.5 -64.5q1 -28.5 1.5 -36l-230 0q0.5 7.5 1 34q0.5 26.5 1.5 62.5q0.5 36 0.5 72q0.5 35.5 1 61q0 25.5 0 31l0 94q0 7.5 0 32.5q0 25 -0.5 59q0 34.5 -0.5 69.5q0 35.5 -0.5 63q0 28 -0.5 40l227 0" />
</g>
<g id="PathID_9" transform="matrix(0.0352941, 0, 0, 0.0352941, 192, 84)">
<path style="fill:#FF66CC;fill-opacity:1" d="M315.5 -357.5q0 -39.5 0.5 -82.5q0.5 -42.5 1 -81q1 -38 1.5 -64.5q0.5 -26 1 -33l-227 0q0 7.5 0 34q0.5 26.5 0.5 62.5q0.5 36 1 71.5q0 36 0.5 61q0 25.5 0 31l0 94.5q0 7.5 0 32.5q0 25 -0.5 59q0 34.5 -0.5 69.5q0 35.5 -0.5 63q0 28 -0.5 40l227 0q-0.5 -8.5 -1 -37.5q-0.5 -29 -1.5 -69q-0.5 -40 -1 -81.5q-0.5 -41.5 -0.5 -75l0 -94.5" />
</g>
<g id="PathID_10" transform="matrix(0.0352941, 0, 0, 0.0352941, 0, 132)">
<path style="fill:#FF66CC;fill-opacity:1" d="M322.5 9.5q-0.5 -7.5 -1.5 -39.5q-1 -31.5 -1.5 -74.5q-1 -42.5 -1.5 -83.5q-0.5 -41.5 -0.5 -67.5l0 -15.5l2 0q15.5 21 41.5 55.5q26 34 56 73.5q30 39 57.5 75.5q28 36 47.5 61q19.5 25 25 31l177 -147.5q-15 -14 -42.5 -41q-27 -26.5 -58.5 -56.5q-31 -30.5 -57.5 -56.5q-27 -26.5 -40 -40q26 -26 62.5 -61.5q36 -35.5 70 -68.5q34 -33 53.5 -51.5l-156.5 -138.5q-7 8 -28.5 33.5q-21 25.5 -50.5 60.5q-29 35 -60 72q-30.5 37 -56.5 68q-25.5 31.5 -40 49l-2 0l0 -25.5q0 -29.5 0.5 -69q1 -39.5 1.5 -78.5q1 -39 2 -67q0.5 -27.5 1 -34l-229 0q0 8.5 0.5 40.5q0.5 32 1 74.5q0.5 43 1 85q0.5 42.5 0.5 72l0 92q0 38 -0.5 81q0 43 -0.5 83q-0.5 40 -1 69q-0.5 29 -1 39.5l229 0" />
</g>
<g id="PathID_11" transform="matrix(0.0352941, 0, 0, 0.0352941, 48, 132)">
<path style="fill:#FF66CC;fill-opacity:1" d="M93.5 -618.5q0.5 6 0.5 31.5q0.5 25 1 60q0.5 34.5 0.5 69.5q0.5 34.5 1 59q0 25 0 30l0 116q0 8.5 0 41.5q0 32.5 0 75q-0.5 42.5 -1 80q-0.5 37.5 -1 56q25 0 73 1q47.5 1 105 2.5q57.5 1.5 112 2.5q54.5 1.5 93 2.5q38.5 1 48 1l-1 -170q-38.5 2 -82 3q-43.5 0.5 -78 1q-34.5 0 -47 0l0 -152.5q0 -42 0.5 -92q1 -49.5 1.5 -96q1 -47 2 -80q0.5 -33 1 -41.5l-229 0" />
</g>
<g id="PathID_12" transform="matrix(0.0352941, 0, 0, 0.0352941, 96, 132)">
<path style="fill:#FF66CC;fill-opacity:1" d="M195.5 26.5q5.5 -13 15.5 -43q10 -30 22.5 -68.5q12 -38.5 24.5 -77q12 -39 21 -69.5q9.5 -31 13.5 -45q6 10 24.5 38.5q19 28 45.5 67q26.5 39 56 81q29 42.5 56.5 80.5l14.5 0q26.5 -34.5 58.5 -78q32 -43.5 62 -85.5q30 -41.5 51 -71q21 -29.5 26 -36.5q2.5 7.5 13 34q10 27 25 64q15 37.5 31.5 77.5q16.5 40.5 31 75q14 35 23.5 56.5l192.5 -77.5q-8 -15.5 -32 -65.5q-23.5 -50 -56.5 -119.5q-32.5 -69.5 -68 -144q-35 -74.5 -66 -139q-31 -65 -51 -105l-14.5 0q-19.5 29 -49.5 75q-30.5 46 -63 96q-33 50 -60.5 91.5q-28 42 -42 62.5q-11.5 -18 -39 -60q-27.5 -41.5 -61.5 -93.5q-34.5 -52.5 -67 -101.5q-32.5 -49.5 -54.5 -83l-14.5 0q-14 28.5 -36.5 80.5q-22.5 52 -50 116.5q-27.5 64.5 -55 131.5q-28 66.5 -52 125q-24 58.5 -40.5 97.5q-16.5 39.5 -21 49l186.5 63.5" />
</g>
<g id="PathID_13" transform="matrix(0.0352941, 0, 0, 0.0352941, 144, 132)">
<path style="fill:#FF66CC;fill-opacity:1" d="M264 6q-0.5 -8.5 -0.5 -36q0 -28 -0.5 -66q0 -38 0 -77q0 -39 0 -70.5q0 -31 0 -45.5q12.5 10 50.5 38.5q38.5 28 91.5 66.5q53.5 38.5 110 78q56.5 40 105 73q48.5 33 77.5 50.5l16.5 -4q1 -29.5 3.5 -77q2.5 -47.5 6 -106.5q3 -59.5 7 -123q3.5 -64.5 7 -126q4 -61.5 8 -113q4 -51.5 7 -86.5l-200.5 -4.5q-0.5 12 -0.5 41q0 29.5 0.5 67q0 38 0.5 76.5q0 38.5 0.5 69q0 31 0 45.5q-6.5 -6.5 -40.5 -31q-33.5 -25 -84 -60.5q-50 -35.5 -107.5 -75q-57 -39.5 -110.5 -76q-53.5 -36.5 -94 -62.5l-16 5q-2.5 30 -5.5 82q-3.5 52.5 -7 117.5q-4 65 -7.5 133q-4 67.5 -7.5 128q-3.5 60.5 -6 104q-3 43.5 -4.5 59.5l201.5 6" />
</g>
<g id="PathID_14" transform="matrix(0.0352941, 0, 0, 0.0352941, 192, 132)">
<path style="fill:#FF66CC;fill-opacity:1" d="M399.5 14.5q117 -1 195.5 -35q78.5 -33.5 124.5 -86q46.5 -52.5 66 -110.5q20 -58.5 19.5 -108.5q-0.5 -96.5 -44 -164.5q-43 -68.5 -124 -105q-80.5 -36.5 -192.5 -37q-103 1 -179.5 31q-76.5 30 -126.5 80q-50 50.5 -75 112q-24.5 61.5 -24.5 125.5q0 53 21 105q21.5 52.5 65.5 96q44 43.5 112 70q68.5 26 162 27M409.5 -127q-36 0 -66 -18.5q-30 -18.5 -47.5 -56.5q-18 -37.5 -18.5 -95q0 -53 18 -96.5q17.5 -44 52 -70q34.5 -26.5 85 -27q64 0 99 44q34.5 43.5 35 127q-1 96 -42.5 144.5q-42 48 -114.5 48" />
</g>
<g id="PathID_15" transform="matrix(0.0352941, 0, 0, 0.0352941, 0, 180)">
<path style="fill:#FF66CC;fill-opacity:1" d="M312.5 0q-0.5 -7.5 -0.5 -25q-0.5 -18 -0.5 -39q0 -21 0 -38.5q0 -17.5 0 -24.5l0 -22.5q111 -17 187 -59q76 -42 115 -98.5q39.5 -56.5 39.5 -118q-0.5 -49 -24.5 -83q-24 -34.5 -63.5 -56q-39.5 -21.5 -87 -32q-38 -9 -90 -14q-52 -5 -124 -6.5q-72 -2 -170.5 -2q0 4.5 0 25.5q0.5 20.5 0.5 49.5q0.5 29 1 58.5q0 29.5 0.5 51.5q0 22 0 29l0 95q0 25 -0.5 69.5q0 45 -0.5 94.5q-0.5 50 -0.5 90q-0.5 40 -0.5 55.5l219 0M311.5 -491.5q68.5 6 94.5 30q26.5 24 25 61q-1 40 -20 66.5q-19 27 -46.5 40.5q-27 14 -53 15l0 -213" />
</g>
<g id="PathID_16" transform="matrix(0.0352941, 0, 0, 0.0352941, 48, 180)">
<path style="fill:#FF66CC;fill-opacity:1" d="M311.5 -492.5q68 1.5 94 23q26 21 24.5 52.5q-0.5 32.5 -16 57.5q-15 25.5 -38.5 43.5q-23 18.5 -47.5 30.5q8 12 30 44q22 32 51 73.5q28.5 42 57 83.5q28.5 41.5 50 72.5q21.5 31 29 41.5l182 -132q-10 -11 -35.5 -36q-26 -24.5 -57 -54.5q-31 -29.5 -57.5 -54.5q-26 -25.5 -37.5 -37q56.5 -34.5 86.5 -77q30 -43 30.5 -97q-0.5 -60.5 -54.5 -98.5q-54.5 -38 -157.5 -51q-68 -8.5 -159.5 -9.5q-91 -1.5 -190.5 -1q0.5 6 1 28.5q0.5 22 1.5 53q0.5 31 0.5 62.5q0.5 31.5 1 55.5q0 24.5 0 33l0 141.5q0 6 0 30.5q0 24 0 57.5q0 33.5 0 67q-0.5 33.5 -1 58q-1 24.5 -2 31.5l220 0q-0.5 -5 -1 -29.5q-0.5 -25 -1.5 -60.5q-0.5 -35.5 -0.5 -72q-0.5 -37 -1 -65.5q0 -28 0 -38.5l0 -226.5" />
</g>
<g id="PathID_17" transform="matrix(0.0352941, 0, 0, 0.0352941, 96, 180)">
<path style="fill:#FF66CC;fill-opacity:1" d="M79.5 17.5q146 -12.5 238 -51q91.5 -39 134.5 -92q43 -52.5 42.5 -107q-1 -43.5 -25 -71.5q-24.5 -28.5 -56.5 -45.5q-32.5 -17 -59 -26.5q-45.5 -17 -69.5 -29.5q-24.5 -12.5 -24.5 -29q0 -27 48 -36.5q48 -9 143.5 -8.5l-24.5 -157.5q-124 7.5 -213 40.5q-88.5 33.5 -136.5 82q-47.5 49 -48 103.5q1 41 22.5 69.5q21.5 29 53 48.5q31 19.5 62 33q56 24 76 38q20.5 13.5 19 27.5q-1 21 -31 33.5q-30 13 -77 18.5q-46.5 5.5 -98 4l23.5 156" />
</g>
<g id="PathID_18" transform="matrix(0.0352941, 0, 0, 0.0352941, 144, 180)">
<path style="fill:#FF66CC;fill-opacity:1" d="M421.5 0q-1 -10 -1.5 -46.5q-1 -37 -1 -86q-0.5 -48.5 -0.5 -95l0 -233.5q4.5 0 32.5 0.5q27.5 1 63.5 1.5q36 1 65.5 2q29.5 0.5 37 1l0 -160.5q-14 1.5 -43 2.5q-29.5 1 -65 2q-35.5 0.5 -70 1.5q-34 0.5 -58 1q-24 0 -30 0l-81 0q-3.5 0 -28 0q-24.5 -0.5 -60.5 -1q-35.5 -1 -73 -1.5q-38 -1 -68 -2q-30.5 -1 -43.5 -2.5l0 160.5q11.5 -0.5 38 -1q26.5 -1 58 -2q32 -0.5 60.5 -1.5q28 -0.5 43 -0.5l0 220q0 48.5 -0.5 99.5q0 51 -0.5 90q-0.5 39 -1 51.5l227 0" />
</g>
<g id="PathID_19" transform="matrix(0.0352941, 0, 0, 0.0352941, 192, 180)">
<path style="fill:#FF66CC;fill-opacity:1" d="M289 -462q0 -59 1.5 -96.5q1 -37 3.5 -54l-229.5 0q0 10.5 0 34q-0.5 23.5 -0.5 50.5q-0.5 26.5 -0.5 47.5l0 47q0 78.5 3.5 133q3.5 54 11 91.5q7.5 37 19.5 64q11.5 27 28.5 50q35.5 48.5 82.5 72q47 23.5 95 31q48 7 87 6.5q78.5 0 145 -25q66.5 -25 109.5 -73.5q34.5 -39.5 52 -88.5q17.5 -49 23.5 -112.5q6 -63.5 5.5 -146.5l0 -41q0 -35 -0.5 -66.5q0 -31.5 -0.5 -54.5q0 -23.5 0 -33.5l-225 0q1 25 3 65.5q2 41 2 87.5l0 32.5q0 73.5 -0.5 120q-0.5 46.5 -3 74q-2.5 27.5 -8 43.5q-5.5 16.5 -15 29q-13 18.5 -32 28.5q-19.5 9.5 -44 9.5q-21.5 0 -39 -6.5q-18 -7 -32.5 -22q-18 -19 -27 -48q-9 -29 -12 -75q-3.5 -46 -3 -115l0 -58.5" />
</g>
<g id="PathID_20" transform="matrix(0.0352941, 0, 0, 0.0352941, 0, 228)">
<path style="fill:#FF66CC;fill-opacity:1" d="M564 -638q-4 9 -21 42.5q-17 33 -40.5 79q-23.5 46 -47.5 93.5q-24.5 48 -44 87q-19 38.5 -28 57.5q-9 -18.5 -27.5 -56q-18.5 -38 -41.5 -84.5q-23 -47 -45.5 -92.5q-22.5 -45.5 -39.5 -80q-17 -34 -23 -46.5l-205 103.5q9.5 15 39 63.5q30 49 72 117.5q42 68.5 88 142.5q46.5 74 88.5 139.5q42 65.5 72 108.5l19.5 0q18 -26 50.5 -74.5q33 -48.5 73.5 -109.5q40.5 -61 83 -125q42 -64 79.5 -120.5q37.5 -57 64 -96.5q26.5 -40 35.5 -52.5l-202 -96.5" />
</g>
<g id="PathID_21" transform="matrix(0.0352941, 0, 0, 0.0352941, 48, 228)">
<path style="fill:#FF66CC;fill-opacity:1" d="M813 -622q-6 16 -17.5 49q-12 33 -26 74.5q-14 41.5 -28.5 82.5q-14 41 -25 73q-11.5 31.5 -17 45l-2 0q-26 -34 -74 -99q-48 -65 -110 -153.5l-13.5 0q-43 65.5 -80.5 121.5q-37.5 56 -63 95q-26 38.5 -33.5 52q-6 -15.5 -19.5 -56.5q-13.5 -41 -31 -94.5q-17 -53 -34 -105.5q-17 -52.5 -29 -91.5l-202 70.5q11.5 26 33 75q21 49 48 111q27 62.5 55.5 128.5q28.5 66 54.5 125.5q26.5 59.5 46.5 103q20 43.5 30 60.5l13 0q17 -22 44 -58q26.5 -36 57.5 -78q30.5 -42 60.5 -82q29.5 -40 52 -70q14 18.5 39.5 52.5q25.5 34.5 56.5 75q31 40.5 60 78q29 37 49 61l13 0q10 -16 33 -61q23.5 -45.5 54.5 -107.5q31 -62 64 -128.5q33 -67 62.5 -126.5q29 -59.5 49 -99.5q20 -40 25 -48.5l-194.5 -73" />
</g>
<g id="PathID_22" transform="matrix(0.0352941, 0, 0, 0.0352941, 96, 228)">
<path style="fill:#FF66CC;fill-opacity:1" d="M471 0q-1 -10 -2 -33q-1 -23 -1.5 -45q-0.5 -22 -0.5 -29.5l0 -54.5q1 -74.5 28 -130q27 -55 69 -87q34 -24.5 72 -38.5q38 -14 69.5 -20l-58.5 -199.5q-54.5 15 -99 39.5q-44 24.5 -78 54.5q-33 30 -59.5 67q-26 37 -41.5 80.5l-7.5 0q-17 -50.5 -40 -87q-23.5 -37 -49 -61.5q-36.5 -33 -82.5 -55.5q-46 -22.5 -93.5 -35.5l-71.5 198.5q22.5 6 49.5 14q27 8 55 25q52 33.5 84 93q31.5 60 32.5 144.5l0 36q0 5 -0.5 21.5q-1 16 -1.5 37q-1 21 -2 39q-0.5 18 -1 26.5l230 0" />
</g>
<g id="PathID_23" transform="matrix(0.0352941, 0, 0, 0.0352941, 144, 228)">
<path style="fill:#FF66CC;fill-opacity:1" d="" />
</g>
</svg>
